<svg width="1440" height="800" viewBox="0 0 1440 800" fill="none" xmlns="http://www.w3.org/2000/svg">
<rect width="1440" height="800" fill="#1A376B"/>
<circle cx="1290.5" cy="610.5" r="88.5" fill="#EADCDE"/>
<path d="M132.86 93.46C110 93.46 90.74 106.24 90.74 127.66C90.74 146.74 110.36 155.2 129.62 163.12C147.98 170.86 165.98 178.06 165.98 195.7C165.98 209.92 157.34 220 137.54 220C107.66 220 95.6 202 95.6 168.52C95.6 166 93.62 166 93.62 168.52C93.62 177.34 93.8 206.32 93.8 214.6C93.8 215.68 93.98 216.04 95.6 216.4C108.38 219.82 118.1 221.8 137.54 221.8C159.14 221.8 176.78 207.94 176.78 187.24C176.78 167.8 157.88 159.52 139.16 151.78C120.62 143.86 102.08 136.48 102.08 119.2C102.08 105.52 110.9 95.26 132.86 95.26C166.52 95.26 171.56 116.32 171.2 144.04C171.2 146.38 173 146.38 173 144.04C173 115.6 174.44 103.72 174.08 100.12C173.9 98.68 173.36 98.5 172.1 98.14C161.84 95.8 150.86 93.46 132.86 93.46Z" fill="#EADCDE"/>
<path d="M212.857 221.98C225.457 221.98 244.357 202.54 249.217 194.26C248.857 198.04 248.497 204.34 248.497 209.02C248.497 217.12 251.917 221.8 258.757 221.8C265.777 221.8 277.117 211.36 279.997 207.22C280.897 205.78 278.737 204.34 277.837 205.78C275.857 209.38 271.357 215.68 268.117 215.68C264.337 215.68 263.077 210.64 263.077 200.38C263.077 193.36 264.517 173.02 264.517 160.96C264.517 137.38 251.737 128.2 234.097 128.2C221.317 128.2 206.197 135.76 198.997 140.44C194.497 143.32 192.697 146.74 192.697 148.9C192.697 151.42 195.577 153.04 199.897 153.04C204.757 153.04 206.377 152.14 207.997 149.8C211.957 144.04 215.377 129.82 231.217 129.82C243.997 129.82 249.757 136.66 250.477 159.16L235.537 164.92C202.237 177.88 190.537 189.76 190.537 201.82C190.537 212.8 198.457 221.98 212.857 221.98ZM203.137 196.6C203.137 183.28 209.437 177.88 235.897 166.72L250.657 160.42V164.2C250.657 178.96 249.757 187.78 249.577 190.12C247.957 196.06 231.937 214.06 221.857 214.06C213.037 214.06 203.137 206.32 203.137 196.6Z" fill="#EADCDE"/>
<path d="M348.109 158.08C355.309 140.8 361.609 131.44 370.069 131.62C371.329 131.62 371.329 130 370.069 130C368.809 130 357.289 130.36 354.769 130.36C352.429 130.36 343.429 130.18 338.749 130.18C337.309 130.18 337.309 131.8 338.749 131.8C350.089 131.62 353.689 139.18 346.489 157L325.609 206.86L300.589 149.26C293.749 133.78 294.649 131.62 305.089 131.62C306.529 131.62 306.529 130.18 305.089 130.18C300.589 130.18 289.249 130.36 286.729 130.36C284.209 130.36 269.989 130 268.729 130C267.469 130 267.469 131.62 268.729 131.62C276.289 131.44 279.889 133.96 288.709 154.3L317.509 220.36C317.689 220.72 317.869 220.72 318.229 220.72H321.109C321.469 220.72 321.649 220.72 321.829 220.36L348.109 158.08Z" fill="#EADCDE"/>
<path d="M409.749 221.8C436.929 221.8 455.829 198.94 465.369 176.8C466.269 174.82 465.009 174.28 464.109 176.44C454.209 197.86 440.889 211.36 418.929 211.36C394.629 211.36 375.369 194.08 375.369 171.94C375.369 166.9 375.909 162.22 376.809 158.08H438.369C443.949 158.08 445.569 155.56 445.929 152.5C447.009 144.22 440.529 128.2 414.609 128.2C389.769 128.2 364.569 151.6 364.569 178.6C364.569 203.44 382.209 221.8 409.749 221.8ZM421.449 155.92C409.749 155.92 397.509 156.64 377.169 156.64C381.849 140.44 394.089 132.16 409.569 132.16C423.429 132.16 430.269 141.7 430.269 148.54C430.269 150.88 429.729 153.04 428.649 154.3C428.109 154.84 423.969 155.92 421.449 155.92Z" fill="#EADCDE"/>
<path d="M116.84 359.88C116.84 315.06 117.02 314.88 126.92 314.88H130.52C131.96 314.88 131.96 313.26 130.52 313.26C125.48 313.26 112.7 313.8 110 313.8C107.48 313.8 93.4399 313.26 88.3999 313.26C86.9599 313.26 86.9599 314.88 88.3999 314.88H93.0799C102.44 314.88 102.8 314.52 102.8 359.88V391.38C102.8 438.54 99.9199 450.42 92.3599 458.52C90.9199 460.14 87.4999 461.22 85.1599 461.22C83.5399 461.22 78.4999 461.04 73.9999 461.04C72.3799 461.04 71.1199 461.22 70.3999 461.4C65.3599 462.84 63.3799 467.88 63.3799 471.66C63.3799 473.46 65.3599 475.08 68.2399 475.8C69.3199 475.98 70.9399 476.16 72.3799 476.16C75.0799 476.16 83.8999 469.32 87.6799 465.72C108.74 445.2 117.02 436.38 117.02 399.66C117.02 394.62 116.84 385.26 116.84 380.58V359.88Z" fill="#EADCDE"/>
<path d="M143.751 403.26C143.751 431.52 156.531 439.8 172.731 439.8C186.411 439.8 196.851 432.42 206.031 420.18C205.851 430.26 204.231 437.1 204.231 438.18C204.231 439.26 204.231 439.98 205.671 439.8C210.711 439.26 217.911 438 229.071 438C230.151 438 230.151 436.38 229.071 436.38C220.251 436.38 219.531 434.76 219.531 416.58V348.18C219.531 347.28 216.831 346.56 216.291 346.92C210.171 350.34 203.511 353.4 194.511 355.02C193.071 355.2 193.071 356.82 194.511 356.64C203.511 355.02 206.031 354.66 206.031 370.14V418.02C197.391 429.54 190.011 434.4 178.671 434.4C167.691 434.4 157.431 427.38 157.431 405.06V348.18C157.431 347.28 154.731 346.56 154.191 346.92C148.071 350.34 141.231 353.4 132.231 355.02C130.791 355.2 130.791 356.82 132.231 356.64C141.231 355.02 143.751 354.66 143.751 370.14V403.26Z" fill="#EADCDE"/>
<path d="M321.338 382.74C321.338 354.48 308.198 346.2 291.998 346.2C278.138 346.2 267.878 353.58 258.698 365.82C258.338 358.44 254.558 351.24 251.318 348C250.778 347.46 250.598 347.46 250.238 347.82C247.178 350.88 240.338 354.12 237.098 355.38C236.738 355.56 236.558 355.92 237.098 356.46C241.238 360.24 245.378 364.92 245.378 370.14V416.58C245.378 434.22 245.018 436.38 237.278 436.38C235.838 436.38 235.838 438 237.278 438C242.498 438 251.858 437.64 254.558 437.64C257.438 437.64 266.798 438 268.238 438C269.678 438 269.678 436.38 268.238 436.38H258.878V367.98C267.338 356.64 274.718 351.6 286.058 351.6C297.038 351.6 307.658 358.62 307.838 380.94L308.018 419.28C308.018 435.12 306.038 436.38 298.658 436.38C297.218 436.38 297.218 438 298.658 438C303.878 438 311.258 437.64 313.958 437.64C316.838 437.64 328.538 438 329.978 438C331.418 438 331.418 436.38 329.978 436.38C323.858 436.56 321.338 436.2 321.338 420.36V382.74Z" fill="#EADCDE"/>
<path d="M384.612 439.8C411.792 439.8 430.692 416.94 440.232 394.8C441.132 392.82 439.872 392.28 438.972 394.44C429.072 415.86 415.752 429.36 393.792 429.36C369.492 429.36 350.232 412.08 350.232 389.94C350.232 384.9 350.772 380.22 351.672 376.08H413.232C418.812 376.08 420.432 373.56 420.792 370.5C421.872 362.22 415.392 346.2 389.472 346.2C364.632 346.2 339.432 369.6 339.432 396.6C339.432 421.44 357.072 439.8 384.612 439.8ZM396.312 373.92C384.612 373.92 372.372 374.64 352.032 374.64C356.712 358.44 368.952 350.16 384.432 350.16C398.292 350.16 405.132 359.7 405.132 366.54C405.132 368.88 404.592 371.04 403.512 372.3C402.972 372.84 398.832 373.92 396.312 373.92Z" fill="#EADCDE"/>
<path d="M566.42 448.18C574.88 448.18 609.26 448.54 613.94 448.54C619.7 448.54 621.5 448.18 621.86 447.82C622.94 446.38 625.28 430.18 627.44 414.7L629.24 402.28C629.42 401.02 627.44 401.02 627.26 402.1L625.46 414.34C623.12 430.54 614.66 436.3 600.44 436.48C586.58 436.84 558.86 436.84 545.9 436.84C556.16 426.58 566.06 417.4 575.6 408.94C601.88 385.72 624.2 368.44 624.2 350.8C624.2 331.72 608.9 320.56 583.88 320.56C566.42 320.56 553.82 325.24 539.78 329.38C537.98 329.56 537.8 331.72 537.8 333.34C537.8 337.84 541.4 358.9 541.4 379.24C541.4 380.86 543.02 380.86 543.02 379.24C543.02 334.96 553.46 322.18 581 322.18C600.44 322.18 609.26 334.24 609.26 351.16C609.26 371.5 598.46 385.36 574.52 407.68C563.54 417.76 552.56 427.66 535.46 441.88C534.56 442.6 535.1 448.72 535.1 448.72C537.26 448.72 554.54 448.18 566.42 448.18Z" fill="#EADCDE"/>
<path d="M697.201 449.8C709.261 449.8 721.141 444.22 727.981 439.36C739.321 431.44 753.001 410.92 753.001 384.46C753.001 343.78 737.881 321.46 701.161 321.46C690.361 321.46 675.061 328.3 668.221 333.34C655.621 342.7 645.181 358.9 645.181 386.62C645.181 430 663.541 449.8 697.201 449.8ZM703.861 442.78C672.721 442.78 658.321 420.28 658.321 385C658.321 356.56 662.101 341.8 669.121 334.06C676.141 330.28 686.041 328.12 695.941 328.12C726.361 328.12 740.041 348.64 740.041 385.54C740.041 409.84 737.521 427.84 727.261 438.46C722.581 440.8 712.501 442.78 703.861 442.78Z" fill="#EADCDE"/>
<path d="M783.251 470.14C788.111 467.26 799.091 457.72 799.091 446.56C799.091 435.22 794.231 428.2 786.311 428.2C779.471 428.2 775.511 433.06 775.511 438.64C775.511 443.86 779.651 448 784.871 448C788.471 448 791.171 446.38 792.611 443.68C793.331 445.48 793.691 447.46 793.691 449.62C793.691 460.42 787.751 466.54 782.711 469.42C781.631 470.14 782.351 470.68 783.251 470.14Z" fill="#EADCDE"/>
<path d="M950.42 448.18C958.88 448.18 993.26 448.54 997.94 448.54C1003.7 448.54 1005.5 448.18 1005.86 447.82C1006.94 446.38 1009.28 430.18 1011.44 414.7L1013.24 402.28C1013.42 401.02 1011.44 401.02 1011.26 402.1L1009.46 414.34C1007.12 430.54 998.66 436.3 984.44 436.48C970.58 436.84 942.86 436.84 929.9 436.84C940.16 426.58 950.06 417.4 959.6 408.94C985.88 385.72 1008.2 368.44 1008.2 350.8C1008.2 331.72 992.9 320.56 967.88 320.56C950.42 320.56 937.82 325.24 923.78 329.38C921.98 329.56 921.8 331.72 921.8 333.34C921.8 337.84 925.4 358.9 925.4 379.24C925.4 380.86 927.02 380.86 927.02 379.24C927.02 334.96 937.46 322.18 965 322.18C984.44 322.18 993.26 334.24 993.26 351.16C993.26 371.5 982.46 385.36 958.52 407.68C947.54 417.76 936.56 427.66 919.46 441.88C918.56 442.6 919.1 448.72 919.1 448.72C921.26 448.72 938.54 448.18 950.42 448.18Z" fill="#EADCDE"/>
<path d="M1081.2 449.8C1093.26 449.8 1105.14 444.22 1111.98 439.36C1123.32 431.44 1137 410.92 1137 384.46C1137 343.78 1121.88 321.46 1085.16 321.46C1074.36 321.46 1059.06 328.3 1052.22 333.34C1039.62 342.7 1029.18 358.9 1029.18 386.62C1029.18 430 1047.54 449.8 1081.2 449.8ZM1087.86 442.78C1056.72 442.78 1042.32 420.28 1042.32 385C1042.32 356.56 1046.1 341.8 1053.12 334.06C1060.14 330.28 1070.04 328.12 1079.94 328.12C1110.36 328.12 1124.04 348.64 1124.04 385.54C1124.04 409.84 1121.52 427.84 1111.26 438.46C1106.58 440.8 1096.5 442.78 1087.86 442.78Z" fill="#EADCDE"/>
<path d="M1182.28 448.18C1190.74 448.18 1225.12 448.54 1229.8 448.54C1235.56 448.54 1237.36 448.18 1237.72 447.82C1238.8 446.38 1241.14 430.18 1243.3 414.7L1245.1 402.28C1245.28 401.02 1243.3 401.02 1243.12 402.1L1241.32 414.34C1238.98 430.54 1230.52 436.3 1216.3 436.48C1202.44 436.84 1174.72 436.84 1161.76 436.84C1172.02 426.58 1181.92 417.4 1191.46 408.94C1217.74 385.72 1240.06 368.44 1240.06 350.8C1240.06 331.72 1224.76 320.56 1199.74 320.56C1182.28 320.56 1169.68 325.24 1155.64 329.38C1153.84 329.56 1153.66 331.72 1153.66 333.34C1153.66 337.84 1157.26 358.9 1157.26 379.24C1157.26 380.86 1158.88 380.86 1158.88 379.24C1158.88 334.96 1169.32 322.18 1196.86 322.18C1216.3 322.18 1225.12 334.24 1225.12 351.16C1225.12 371.5 1214.32 385.36 1190.38 407.68C1179.4 417.76 1168.42 427.66 1151.32 441.88C1150.42 442.6 1150.96 448.72 1150.96 448.72C1153.12 448.72 1170.4 448.18 1182.28 448.18Z" fill="#EADCDE"/>
<path d="M1313.06 449.8C1325.12 449.8 1337 444.22 1343.84 439.36C1355.18 431.44 1368.86 410.92 1368.86 384.46C1368.86 343.78 1353.74 321.46 1317.02 321.46C1306.22 321.46 1290.92 328.3 1284.08 333.34C1271.48 342.7 1261.04 358.9 1261.04 386.62C1261.04 430 1279.4 449.8 1313.06 449.8ZM1319.72 442.78C1288.58 442.78 1274.18 420.28 1274.18 385C1274.18 356.56 1277.96 341.8 1284.98 334.06C1292 330.28 1301.9 328.12 1311.8 328.12C1342.22 328.12 1355.9 348.64 1355.9 385.54C1355.9 409.84 1353.38 427.84 1343.12 438.46C1338.44 440.8 1328.36 442.78 1319.72 442.78Z" fill="#EADCDE"/>
<path d="M99.38 621.38C99.38 665.66 98.48 666.38 89.66 666.38H87.32C85.88 666.38 85.88 668 87.32 668C92.36 668 103.7 667.46 106.4 667.46C108.92 667.46 121.34 668 126.38 668C127.82 668 127.82 666.38 126.38 666.38H122.78C113.96 666.38 113.06 665.66 113.06 621.38V606.08C119.9 606.26 133.4 606.44 146.36 606.44L178.22 606.26V621.38C178.22 665.66 177.32 666.38 168.5 666.38H164.72C163.28 666.38 163.28 668 164.72 668C169.94 668 182.18 667.46 184.88 667.46C187.58 667.46 199.1 668 204.32 668C205.76 668 205.76 666.38 204.32 666.38H201.44C192.8 666.38 191.9 665.66 191.9 621.38V589.88C191.9 545.6 192.8 544.88 201.44 544.88H204.32C205.76 544.88 205.76 543.26 204.32 543.26C199.1 543.26 187.58 543.8 184.88 543.8C182.18 543.8 169.94 543.26 164.72 543.26C163.28 543.26 163.28 544.88 164.72 544.88H168.5C177.32 544.88 178.22 545.6 178.22 589.88V604.46L146.18 603.92L113.06 604.28V589.88C113.06 545.6 113.96 544.88 122.78 544.88H126.38C127.82 544.88 127.82 543.26 126.38 543.26C121.34 543.26 108.92 543.8 106.4 543.8C103.7 543.8 92.36 543.26 87.32 543.26C85.88 543.26 85.88 544.88 87.32 544.88H89.66C98.48 544.88 99.38 545.6 99.38 589.88V621.38Z" fill="#EADCDE"/>
<path d="M220.392 633.26C220.392 661.52 233.172 669.8 249.372 669.8C263.052 669.8 273.492 662.42 282.672 650.18C282.492 660.26 280.872 667.1 280.872 668.18C280.872 669.26 280.872 669.98 282.312 669.8C287.352 669.26 294.552 668 305.712 668C306.792 668 306.792 666.38 305.712 666.38C296.892 666.38 296.172 664.76 296.172 646.58V578.18C296.172 577.28 293.472 576.56 292.932 576.92C286.812 580.34 280.152 583.4 271.152 585.02C269.712 585.2 269.712 586.82 271.152 586.64C280.152 585.02 282.672 584.66 282.672 600.14V648.02C274.032 659.54 266.652 664.4 255.312 664.4C244.332 664.4 234.072 657.38 234.072 635.06V578.18C234.072 577.28 231.372 576.56 230.832 576.92C224.712 580.34 217.872 583.4 208.872 585.02C207.432 585.2 207.432 586.82 208.872 586.64C217.872 585.02 220.392 584.66 220.392 600.14V633.26Z" fill="#EADCDE"/>
<path d="M390.059 584.66C384.479 580.34 376.559 576.2 367.019 576.2C341.099 576.2 315.359 597.8 315.359 627.5C315.359 652.34 332.639 669.8 353.159 669.8C367.199 669.8 381.419 662.24 390.059 649.64C389.879 659.9 388.799 667.1 388.799 668.18C388.799 669.44 389.519 670.16 390.959 669.8C396.899 668.54 401.759 668 412.739 668C414.179 668 414.179 666.38 412.739 666.38C403.739 666.38 403.559 664.22 403.559 646.58V522.92C403.559 522.02 400.499 521.3 399.959 521.66C393.839 525.08 387.179 528.32 378.179 529.94C376.739 530.12 376.739 531.74 378.179 531.56C387.179 529.94 390.059 529.94 390.059 545.42V584.66ZM359.459 580.16C372.599 580.16 383.579 591.14 390.059 597.98V646.76C383.939 656.84 373.319 663.86 362.339 663.86C340.019 663.86 327.959 641.36 327.959 620.3C327.959 593.84 340.019 580.16 359.459 580.16Z" fill="#EADCDE"/>
<path d="M423.653 603.02C423.653 617.42 438.953 623.18 454.073 628.22C468.653 633.08 482.693 637.76 482.693 650.18C482.693 660.08 476.753 668.18 459.293 668.18C433.733 668.18 425.813 654.5 425.813 628.76C425.813 627.14 424.373 627.14 424.373 628.76C424.373 654.14 423.293 658.1 423.293 660.8C423.293 662.42 423.653 663.14 424.553 663.32C431.753 665.3 440.753 669.8 459.293 669.8C477.473 669.8 491.513 658.1 491.513 642.08C491.513 626.06 475.853 620.48 460.733 615.26C446.333 610.22 432.293 605.54 432.293 593.3C432.293 583.94 442.373 577.64 457.133 577.64C478.373 577.64 485.933 590.42 485.933 612.2C485.933 613.64 487.373 613.64 487.373 612.2C487.373 605.9 488.273 586.46 488.273 580.7C488.273 579.98 488.093 579.44 487.013 579.26C476.573 577.64 471.713 576.2 456.953 576.2C442.013 576.2 423.653 584.48 423.653 603.02Z" fill="#EADCDE"/>
<path d="M547.733 669.8C574.913 669.8 594.893 644.96 594.893 621.74C594.893 594.02 575.993 576.2 550.613 576.2C522.893 576.2 503.093 598.88 503.093 624.8C503.093 651.98 522.353 669.8 547.733 669.8ZM550.793 667.82C529.913 667.82 518.033 643.88 518.033 621.74C518.033 595.46 527.393 578 548.453 578C568.253 578 580.313 602.12 580.313 624.62C580.313 651.26 569.873 667.82 550.793 667.82Z" fill="#EADCDE"/>
<path d="M690.303 612.74C690.303 584.48 677.163 576.2 660.963 576.2C647.103 576.2 636.843 583.58 627.663 595.82C627.303 588.44 623.523 581.24 620.283 578C619.743 577.46 619.563 577.46 619.203 577.82C616.143 580.88 609.303 584.12 606.063 585.38C605.703 585.56 605.523 585.92 606.063 586.46C610.203 590.24 614.343 594.92 614.343 600.14V646.58C614.343 664.22 613.983 666.38 606.243 666.38C604.803 666.38 604.803 668 606.243 668C611.463 668 620.823 667.64 623.523 667.64C626.403 667.64 635.763 668 637.203 668C638.643 668 638.643 666.38 637.203 666.38H627.843V597.98C636.303 586.64 643.683 581.6 655.023 581.6C666.003 581.6 676.623 588.62 676.803 610.94L676.983 649.28C676.983 665.12 675.003 666.38 667.623 666.38C666.183 666.38 666.183 668 667.623 668C672.843 668 680.223 667.64 682.923 667.64C685.803 667.64 697.503 668 698.943 668C700.383 668 700.383 666.38 698.943 666.38C692.823 666.56 690.303 666.2 690.303 650.36V612.74Z" fill="#EADCDE"/>
<path d="M723.157 690.14C728.017 687.26 738.997 677.72 738.997 666.56C738.997 655.22 734.137 648.2 726.217 648.2C719.377 648.2 715.417 653.06 715.417 658.64C715.417 663.86 719.557 668 724.777 668C728.377 668 731.077 666.38 732.517 663.68C733.237 665.48 733.597 667.46 733.597 669.62C733.597 680.42 727.657 686.54 722.617 689.42C721.537 690.14 722.257 690.68 723.157 690.14Z" fill="#EADCDE"/>
<path d="M621.291 112.72C621.291 112 620.931 112.18 620.571 112.54L597.531 139C597.171 139.36 597.351 139.9 597.531 139.9H607.431V196.96C607.431 214.24 612.651 221.8 624.711 221.8C637.131 221.8 647.571 210.28 653.331 198.58C654.051 197.14 651.531 196.06 650.991 197.5C646.851 209.56 639.831 216.22 632.631 216.22C625.071 216.22 620.931 209.38 620.931 196.42V139.9C627.051 139.9 641.631 140.08 643.071 140.08C648.651 135.04 651.891 131.44 651.891 130.36C651.891 130 651.531 129.82 645.591 130C639.651 130.18 626.691 130.18 621.291 130.18V112.72Z" fill="#EADCDE"/>
<path d="M673.225 219.64C676.105 219.64 687.085 220 688.525 220C689.965 220 689.965 218.38 688.525 218.38H677.545V149.62C685.825 138.46 693.385 133.6 704.545 133.6C715.525 133.6 726.145 140.62 726.145 162.94V198.94C726.145 218.02 724.705 218.38 716.605 218.38C715.165 218.38 715.165 220 716.605 220C721.825 220 729.745 219.64 732.445 219.64C735.325 219.64 747.025 220 748.465 220C749.905 220 749.905 218.38 748.465 218.38C742.345 218.56 739.825 217.84 739.825 211V164.74C739.825 136.48 726.685 128.2 710.485 128.2C696.805 128.2 686.545 135.4 677.545 147.46V74.9201C677.545 74.0201 674.845 73.3001 674.305 73.6601C668.185 77.0801 661.525 80.1401 652.525 81.7601C651.085 81.9401 651.085 83.5601 652.525 83.3801C661.525 81.7601 664.045 81.9401 664.045 97.4201V198.58C664.045 216.22 663.685 218.38 655.945 218.38C654.505 218.38 654.505 220 655.945 220C661.165 220 670.525 219.64 673.225 219.64Z" fill="#EADCDE"/>
<path d="M803.116 221.8C830.296 221.8 849.196 198.94 858.736 176.8C859.636 174.82 858.376 174.28 857.476 176.44C847.576 197.86 834.256 211.36 812.296 211.36C787.996 211.36 768.736 194.08 768.736 171.94C768.736 166.9 769.276 162.22 770.176 158.08H831.736C837.316 158.08 838.936 155.56 839.296 152.5C840.376 144.22 833.896 128.2 807.976 128.2C783.136 128.2 757.936 151.6 757.936 178.6C757.936 203.44 775.576 221.8 803.116 221.8ZM814.816 155.92C803.116 155.92 790.876 156.64 770.536 156.64C775.216 140.44 787.456 132.16 802.936 132.16C816.796 132.16 823.636 141.7 823.636 148.54C823.636 150.88 823.096 153.04 822.016 154.3C821.476 154.84 817.336 155.92 814.816 155.92Z" fill="#EADCDE"/>
<path d="M1100.55 157.72C1100.55 194.62 1081.47 218.2 1048.89 218.2C1040.79 218.2 1026.03 217.48 1021.71 217.48C1022.43 214.42 1023.15 204.88 1023.15 191.02V141.88C1023.15 97.7803 1023.33 96.8803 1035.57 96.8803H1047.45C1079.67 96.8803 1100.55 120.64 1100.55 157.72ZM1116.57 157.72C1116.57 120.1 1084.89 95.2603 1047.81 95.2603C1042.59 95.2603 1021.17 95.6203 1018.47 95.6203C1015.77 95.6203 997.955 95.2603 996.515 95.2603C995.075 95.2603 995.075 96.8803 996.515 96.8803C1008.03 96.8803 1008.39 97.0603 1008.39 113.26C1008.39 123.16 1008.93 140.98 1008.93 149.26C1008.93 157.54 1009.65 182.38 1008.75 194.8C1007.31 217.48 1005.69 218.74 995.255 218.74C993.455 218.74 993.455 220 995.255 220L1020.63 219.46C1020.63 219.46 1042.41 220 1048.53 220C1087.23 220 1116.57 194.62 1116.57 157.72Z" fill="#EADCDE"/>
<path d="M1151.59 221.98C1164.19 221.98 1183.09 202.54 1187.95 194.26C1187.59 198.04 1187.23 204.34 1187.23 209.02C1187.23 217.12 1190.65 221.8 1197.49 221.8C1204.51 221.8 1215.85 211.36 1218.73 207.22C1219.63 205.78 1217.47 204.34 1216.57 205.78C1214.59 209.38 1210.09 215.68 1206.85 215.68C1203.07 215.68 1201.81 210.64 1201.81 200.38C1201.81 193.36 1203.25 173.02 1203.25 160.96C1203.25 137.38 1190.47 128.2 1172.83 128.2C1160.05 128.2 1144.93 135.76 1137.73 140.44C1133.23 143.32 1131.43 146.74 1131.43 148.9C1131.43 151.42 1134.31 153.04 1138.63 153.04C1143.49 153.04 1145.11 152.14 1146.73 149.8C1150.69 144.04 1154.11 129.82 1169.95 129.82C1182.73 129.82 1188.49 136.66 1189.21 159.16L1174.27 164.92C1140.97 177.88 1129.27 189.76 1129.27 201.82C1129.27 212.8 1137.19 221.98 1151.59 221.98ZM1141.87 196.6C1141.87 183.28 1148.17 177.88 1174.63 166.72L1189.39 160.42V164.2C1189.39 178.96 1188.49 187.78 1188.31 190.12C1186.69 196.06 1170.67 214.06 1160.59 214.06C1151.77 214.06 1141.87 206.32 1141.87 196.6Z" fill="#EADCDE"/>
<path d="M1240.48 112.72C1240.48 112 1240.12 112.18 1239.76 112.54L1216.72 139C1216.36 139.36 1216.54 139.9 1216.72 139.9H1226.62V196.96C1226.62 214.24 1231.84 221.8 1243.9 221.8C1256.32 221.8 1266.76 210.28 1272.52 198.58C1273.24 197.14 1270.72 196.06 1270.18 197.5C1266.04 209.56 1259.02 216.22 1251.82 216.22C1244.26 216.22 1240.12 209.38 1240.12 196.42V139.9C1246.24 139.9 1260.82 140.08 1262.26 140.08C1267.84 135.04 1271.08 131.44 1271.08 130.36C1271.08 130 1270.72 129.82 1264.78 130C1258.84 130.18 1245.88 130.18 1240.48 130.18V112.72Z" fill="#EADCDE"/>
<path d="M1316.49 221.8C1343.67 221.8 1362.57 198.94 1372.11 176.8C1373.01 174.82 1371.75 174.28 1370.85 176.44C1360.95 197.86 1347.63 211.36 1325.67 211.36C1301.37 211.36 1282.11 194.08 1282.11 171.94C1282.11 166.9 1282.65 162.22 1283.55 158.08H1345.11C1350.69 158.08 1352.31 155.56 1352.67 152.5C1353.75 144.22 1347.27 128.2 1321.35 128.2C1296.51 128.2 1271.31 151.6 1271.31 178.6C1271.31 203.44 1288.95 221.8 1316.49 221.8ZM1328.19 155.92C1316.49 155.92 1304.25 156.64 1283.91 156.64C1288.59 140.44 1300.83 132.16 1316.31 132.16C1330.17 132.16 1337.01 141.7 1337.01 148.54C1337.01 150.88 1336.47 153.04 1335.39 154.3C1334.85 154.84 1330.71 155.92 1328.19 155.92Z" fill="#EADCDE"/>
<path d="M872.95 544.7C879.07 544.7 883.03 547.04 887.17 551.18C889.33 553.34 890.05 555.5 890.05 556.76L889.87 621.38C889.69 664.04 884.65 666.2 876.55 666.38H875.47C873.85 666.38 874.03 668 875.29 668C880.33 668 887.17 667.46 889.87 667.46C892.57 667.46 908.41 668.18 913.63 668C914.89 668 914.89 666.38 913.63 666.38H911.11C902.29 666.38 892.21 665.66 892.21 621.38L892.39 556.4L979.15 664.58C980.59 666.56 982.57 668.54 983.65 668.54C984.91 668.54 985.09 667.82 985.09 666.74V589.88C985.09 545.6 987.79 544.88 996.61 544.88H997.87C999.31 544.88 999.31 543.26 997.87 543.26C992.65 543.26 986.35 543.8 983.83 543.8C981.13 543.8 964.93 543.26 959.71 543.26C958.27 543.26 958.27 544.88 959.71 544.88H962.23C970.87 544.88 982.75 545.6 982.75 589.88V646.22L907.87 553.16C904.99 549.74 902.11 545.96 900.85 543.62C900.49 542.9 899.95 542.54 899.05 542.54C897.79 542.54 890.95 543.26 872.23 543.26C870.97 543.26 870.97 544.7 872.23 544.7H872.95Z" fill="#EADCDE"/>
<path d="M1083.88 576.38C1087.66 569.72 1103.14 544.88 1113.4 544.88H1113.76C1115.02 544.88 1115.56 543.26 1114.12 543.26C1109.62 543.26 1096.84 543.62 1094.5 543.62C1091.44 543.62 1078.84 543.26 1075.6 543.26C1073.8 543.26 1073.44 543.8 1073.44 544.34C1073.44 544.88 1073.8 545.42 1074.7 545.42C1075.42 545.42 1078.3 544.7 1079.74 544.7C1097.2 544.7 1086.04 568.82 1081.9 575.84L1062.82 608.78L1045.72 577.28C1032.22 552.62 1029.16 544.88 1038.16 544.88H1041.94C1043.38 544.88 1042.84 543.26 1041.4 543.26C1036.18 543.26 1022.32 543.8 1019.62 543.8C1016.92 543.8 1007.02 543.26 1001.8 543.26C1001.08 543.26 1000.72 543.62 1000.72 544.16C1000.72 544.52 1001.08 544.88 1001.98 544.88H1003.42C1012.6 544.88 1017.28 551.36 1031.14 576.38L1050.58 611.48V621.38C1050.58 665.66 1049.68 666.38 1040.86 666.38H1037.62C1036.18 666.38 1036.18 668 1037.62 668C1042.66 668 1054.9 667.46 1057.42 667.46C1060.12 667.46 1072 668 1077.04 668C1078.48 668 1078.48 666.38 1077.04 666.38H1073.8C1064.98 666.38 1064.08 665.66 1064.08 621.38V610.94L1083.88 576.38Z" fill="#EADCDE"/>
<path d="M1254.46 597.048V599.136H1249.97V603.864H1247.59V599.136H1243.13V597.048H1247.59V592.608H1249.97V597.048H1254.46Z" fill="#1A376B"/>
<path d="M1266.63 606.288C1265.4 606.288 1264.41 605.968 1263.66 605.328C1262.92 604.672 1262.55 603.808 1262.55 602.736C1262.55 602.16 1262.67 601.64 1262.91 601.176C1263.17 600.712 1263.54 600.328 1264.02 600.024C1264.45 599.768 1264.97 599.56 1265.58 599.4C1266.18 599.224 1266.97 599.072 1267.93 598.944L1270.47 598.632V598.32C1270.47 597.424 1270.29 596.776 1269.92 596.376C1269.57 595.96 1269.01 595.752 1268.24 595.752C1267.54 595.752 1266.98 595.936 1266.56 596.304C1266.16 596.656 1265.94 597.176 1265.89 597.864H1262.94C1263.03 596.584 1263.55 595.576 1264.5 594.84C1265.44 594.088 1266.69 593.712 1268.24 593.712C1270.02 593.712 1271.31 594.112 1272.13 594.912C1272.96 595.696 1273.38 596.96 1273.38 598.704V602.28C1273.38 603.912 1273.5 605.152 1273.74 606H1270.86C1270.74 605.344 1270.68 604.656 1270.66 603.936C1270.38 604.672 1269.87 605.248 1269.15 605.664C1268.45 606.08 1267.61 606.288 1266.63 606.288ZM1267.57 604.248C1268.46 604.248 1269.18 603.96 1269.73 603.384C1270.27 602.808 1270.54 602.04 1270.54 601.08V600.312L1267.83 600.72C1267.03 600.848 1266.45 601.064 1266.08 601.368C1265.71 601.672 1265.53 602.08 1265.53 602.592C1265.53 603.104 1265.7 603.512 1266.06 603.816C1266.42 604.104 1266.93 604.248 1267.57 604.248Z" fill="#1A376B"/>
<path d="M1280.69 606.288C1279.73 606.288 1278.88 606.032 1278.15 605.52C1277.41 604.992 1276.84 604.256 1276.44 603.312C1276.04 602.352 1275.84 601.256 1275.84 600.024C1275.84 598.792 1276.05 597.696 1276.47 596.736C1276.9 595.776 1277.5 595.032 1278.27 594.504C1279.03 593.976 1279.91 593.712 1280.91 593.712C1282.52 593.712 1283.67 594.376 1284.36 595.704V588.6H1287.24V606H1284.53V603.84C1284.19 604.608 1283.69 605.208 1283.02 605.64C1282.36 606.072 1281.59 606.288 1280.69 606.288ZM1281.67 604.08C1282.52 604.08 1283.19 603.752 1283.69 603.096C1284.19 602.424 1284.43 601.528 1284.43 600.408V599.64C1284.43 598.472 1284.19 597.56 1283.69 596.904C1283.19 596.248 1282.51 595.92 1281.65 595.92C1280.77 595.92 1280.08 596.28 1279.59 597C1279.09 597.704 1278.84 598.696 1278.84 599.976C1278.84 601.256 1279.09 602.264 1279.59 603C1280.1 603.72 1280.79 604.08 1281.67 604.08Z" fill="#1A376B"/>
<path d="M1295.06 606.288C1294.1 606.288 1293.25 606.032 1292.51 605.52C1291.78 604.992 1291.21 604.256 1290.81 603.312C1290.41 602.352 1290.21 601.256 1290.21 600.024C1290.21 598.792 1290.42 597.696 1290.83 596.736C1291.27 595.776 1291.87 595.032 1292.63 594.504C1293.4 593.976 1294.28 593.712 1295.27 593.712C1296.89 593.712 1298.04 594.376 1298.73 595.704V588.6H1301.61V606H1298.9V603.84C1298.56 604.608 1298.06 605.208 1297.39 605.64C1296.73 606.072 1295.95 606.288 1295.06 606.288ZM1296.04 604.08C1296.89 604.08 1297.56 603.752 1298.06 603.096C1298.55 602.424 1298.8 601.528 1298.8 600.408V599.64C1298.8 598.472 1298.55 597.56 1298.06 596.904C1297.56 596.248 1296.88 595.92 1296.02 595.92C1295.14 595.92 1294.45 596.28 1293.95 597C1293.46 597.704 1293.21 598.696 1293.21 599.976C1293.21 601.256 1293.46 602.264 1293.95 603C1294.47 603.72 1295.16 604.08 1296.04 604.08Z" fill="#1A376B"/>
<path d="M1310 594H1312.16V590.976L1315.04 589.824V594H1317.97V596.088H1315.04V601.824C1315.04 602.48 1315.18 602.96 1315.47 603.264C1315.76 603.568 1316.2 603.72 1316.79 603.72C1317.19 603.72 1317.58 603.672 1317.97 603.576V606C1317.26 606.144 1316.61 606.216 1316 606.216C1314.62 606.216 1313.64 605.88 1313.05 605.208C1312.45 604.536 1312.16 603.56 1312.16 602.28V596.088H1310V594Z" fill="#1A376B"/>
<path d="M1325.1 606.288C1323.95 606.288 1322.93 606.04 1322.03 605.544C1321.15 605.048 1320.46 604.328 1319.97 603.384C1319.47 602.424 1319.22 601.288 1319.22 599.976C1319.22 598.664 1319.47 597.536 1319.97 596.592C1320.46 595.648 1321.15 594.936 1322.03 594.456C1322.93 593.96 1323.95 593.712 1325.1 593.712C1326.26 593.712 1327.27 593.96 1328.15 594.456C1329.05 594.936 1329.74 595.648 1330.24 596.592C1330.74 597.536 1330.98 598.664 1330.98 599.976C1330.98 601.288 1330.74 602.424 1330.24 603.384C1329.74 604.328 1329.05 605.048 1328.15 605.544C1327.27 606.04 1326.26 606.288 1325.1 606.288ZM1325.1 604.104C1326.03 604.104 1326.75 603.76 1327.26 603.072C1327.78 602.368 1328.03 601.336 1328.03 599.976C1328.03 598.632 1327.78 597.616 1327.26 596.928C1326.77 596.24 1326.05 595.896 1325.1 595.896C1324.16 595.896 1323.43 596.24 1322.92 596.928C1322.41 597.616 1322.15 598.632 1322.15 599.976C1322.15 601.32 1322.41 602.344 1322.92 603.048C1323.43 603.752 1324.16 604.104 1325.1 604.104Z" fill="#1A376B"/>
<path d="M1248.08 635.288C1246.89 635.288 1245.85 635.032 1244.96 634.52C1244.08 633.992 1243.4 633.256 1242.92 632.312C1242.44 631.368 1242.2 630.264 1242.2 629C1242.2 627.048 1242.73 625.512 1243.78 624.392C1244.84 623.272 1246.28 622.712 1248.1 622.712C1249.59 622.712 1250.8 623.096 1251.73 623.864C1252.65 624.616 1253.21 625.672 1253.38 627.032L1250.57 627.488C1250.48 626.672 1250.21 626.048 1249.76 625.616C1249.33 625.184 1248.75 624.968 1248.03 624.968C1247.13 624.968 1246.43 625.32 1245.92 626.024C1245.41 626.728 1245.15 627.696 1245.15 628.928C1245.15 630.224 1245.41 631.232 1245.92 631.952C1246.43 632.656 1247.15 633.008 1248.08 633.008C1248.8 633.008 1249.37 632.792 1249.81 632.36C1250.25 631.928 1250.54 631.288 1250.67 630.44L1253.38 630.992C1253.17 632.32 1252.59 633.368 1251.63 634.136C1250.69 634.904 1249.5 635.288 1248.08 635.288Z" fill="#1A376B"/>
<path d="M1259.14 635.288C1257.91 635.288 1256.92 634.968 1256.17 634.328C1255.43 633.672 1255.06 632.808 1255.06 631.736C1255.06 631.16 1255.18 630.64 1255.42 630.176C1255.68 629.712 1256.05 629.328 1256.53 629.024C1256.96 628.768 1257.48 628.56 1258.09 628.4C1258.7 628.224 1259.48 628.072 1260.44 627.944L1262.98 627.632V627.32C1262.98 626.424 1262.8 625.776 1262.43 625.376C1262.08 624.96 1261.52 624.752 1260.75 624.752C1260.05 624.752 1259.49 624.936 1259.07 625.304C1258.67 625.656 1258.45 626.176 1258.4 626.864H1255.45C1255.54 625.584 1256.06 624.576 1257.01 623.84C1257.95 623.088 1259.2 622.712 1260.75 622.712C1262.53 622.712 1263.82 623.112 1264.64 623.912C1265.47 624.696 1265.89 625.96 1265.89 627.704V631.28C1265.89 632.912 1266.01 634.152 1266.25 635H1263.37C1263.26 634.344 1263.19 633.656 1263.18 632.936C1262.89 633.672 1262.38 634.248 1261.66 634.664C1260.96 635.08 1260.12 635.288 1259.14 635.288ZM1260.08 633.248C1260.98 633.248 1261.7 632.96 1262.24 632.384C1262.78 631.808 1263.06 631.04 1263.06 630.08V629.312L1260.34 629.72C1259.54 629.848 1258.96 630.064 1258.59 630.368C1258.22 630.672 1258.04 631.08 1258.04 631.592C1258.04 632.104 1258.22 632.512 1258.57 632.816C1258.94 633.104 1259.44 633.248 1260.08 633.248Z" fill="#1A376B"/>
<path d="M1272.43 617.6V635H1269.55V617.6H1272.43Z" fill="#1A376B"/>
<path d="M1286.57 629.72H1278.15C1278.16 630.728 1278.46 631.536 1279.03 632.144C1279.63 632.736 1280.39 633.032 1281.34 633.032C1282.03 633.032 1282.62 632.864 1283.11 632.528C1283.61 632.192 1283.99 631.696 1284.27 631.04L1286.47 632.048C1286.03 633.088 1285.35 633.888 1284.43 634.448C1283.54 635.008 1282.47 635.288 1281.24 635.288C1279.4 635.288 1277.96 634.752 1276.92 633.68C1275.88 632.592 1275.36 631.072 1275.36 629.12C1275.36 627.136 1275.87 625.576 1276.87 624.44C1277.9 623.288 1279.31 622.712 1281.1 622.712C1282.84 622.712 1284.19 623.208 1285.13 624.2C1286.09 625.176 1286.57 626.576 1286.57 628.4V629.72ZM1283.74 627.632C1283.74 626.656 1283.51 625.912 1283.04 625.4C1282.58 624.888 1281.91 624.632 1281.05 624.632C1280.14 624.632 1279.43 624.912 1278.94 625.472C1278.44 626.032 1278.18 626.816 1278.15 627.824H1283.74V627.632Z" fill="#1A376B"/>
<path d="M1289.52 623H1292.25V625.328C1293.07 623.568 1294.4 622.688 1296.24 622.688C1297.55 622.688 1298.54 623.104 1299.21 623.936C1299.89 624.752 1300.22 625.96 1300.22 627.56V635H1297.32V627.848C1297.32 625.96 1296.57 625.016 1295.09 625.016C1294.24 625.016 1293.57 625.336 1293.09 625.976C1292.63 626.616 1292.4 627.504 1292.4 628.64V635H1289.52V623Z" fill="#1A376B"/>
<path d="M1307.61 635.288C1306.65 635.288 1305.8 635.032 1305.06 634.52C1304.33 633.992 1303.76 633.256 1303.36 632.312C1302.96 631.352 1302.76 630.256 1302.76 629.024C1302.76 627.792 1302.97 626.696 1303.38 625.736C1303.82 624.776 1304.42 624.032 1305.18 623.504C1305.95 622.976 1306.83 622.712 1307.82 622.712C1309.44 622.712 1310.59 623.376 1311.28 624.704V617.6H1314.16V635H1311.45V632.84C1311.11 633.608 1310.61 634.208 1309.94 634.64C1309.28 635.072 1308.5 635.288 1307.61 635.288ZM1308.59 633.08C1309.44 633.08 1310.11 632.752 1310.61 632.096C1311.1 631.424 1311.35 630.528 1311.35 629.408V628.64C1311.35 627.472 1311.1 626.56 1310.61 625.904C1310.11 625.248 1309.43 624.92 1308.57 624.92C1307.69 624.92 1307 625.28 1306.5 626C1306.01 626.704 1305.76 627.696 1305.76 628.976C1305.76 630.256 1306.01 631.264 1306.5 632C1307.02 632.72 1307.71 633.08 1308.59 633.08Z" fill="#1A376B"/>
<path d="M1321.14 635.288C1319.9 635.288 1318.91 634.968 1318.16 634.328C1317.42 633.672 1317.06 632.808 1317.06 631.736C1317.06 631.16 1317.18 630.64 1317.42 630.176C1317.67 629.712 1318.04 629.328 1318.52 629.024C1318.95 628.768 1319.47 628.56 1320.08 628.4C1320.69 628.224 1321.47 628.072 1322.43 627.944L1324.98 627.632V627.32C1324.98 626.424 1324.79 625.776 1324.42 625.376C1324.07 624.96 1323.51 624.752 1322.74 624.752C1322.04 624.752 1321.48 624.936 1321.06 625.304C1320.66 625.656 1320.44 626.176 1320.39 626.864H1317.44C1317.54 625.584 1318.06 624.576 1319 623.84C1319.94 623.088 1321.19 622.712 1322.74 622.712C1324.52 622.712 1325.82 623.112 1326.63 623.912C1327.46 624.696 1327.88 625.96 1327.88 627.704V631.28C1327.88 632.912 1328 634.152 1328.24 635H1325.36C1325.25 634.344 1325.18 633.656 1325.17 632.936C1324.88 633.672 1324.38 634.248 1323.66 634.664C1322.95 635.08 1322.11 635.288 1321.14 635.288ZM1322.07 633.248C1322.97 633.248 1323.69 632.96 1324.23 632.384C1324.78 631.808 1325.05 631.04 1325.05 630.08V629.312L1322.34 629.72C1321.54 629.848 1320.95 630.064 1320.58 630.368C1320.22 630.672 1320.03 631.08 1320.03 631.592C1320.03 632.104 1320.21 632.512 1320.56 632.816C1320.93 633.104 1321.43 633.248 1322.07 633.248Z" fill="#1A376B"/>
<path d="M1334.11 625.904C1334.43 624.912 1334.91 624.136 1335.55 623.576C1336.19 623 1336.98 622.712 1337.93 622.712C1338.07 622.712 1338.18 622.72 1338.26 622.736V625.496H1337.88C1336.81 625.496 1335.98 625.776 1335.38 626.336C1334.95 626.768 1334.66 627.28 1334.52 627.872C1334.38 628.464 1334.3 629.168 1334.3 629.984V635H1331.42V623H1334.11V625.904Z" fill="#1A376B"/>
</svg>
