<svg width="1440" height="800" viewBox="0 0 1440 800" fill="none" xmlns="http://www.w3.org/2000/svg">
<rect width="1440" height="800" fill="#1A376B"/>
<circle cx="1290.5" cy="504.24" r="88.5" fill="#EADCDE"/>
<path d="M116.84 253.62C116.84 208.8 117.02 208.62 126.92 208.62H130.52C131.96 208.62 131.96 207 130.52 207C125.48 207 112.7 207.54 110 207.54C107.48 207.54 93.4399 207 88.3999 207C86.9599 207 86.9599 208.62 88.3999 208.62H93.0799C102.44 208.62 102.8 208.26 102.8 253.62V285.12C102.8 332.28 99.9199 344.16 92.3599 352.26C90.9199 353.88 87.4999 354.96 85.1599 354.96C83.5399 354.96 78.4999 354.78 73.9999 354.78C72.3799 354.78 71.1199 354.96 70.3999 355.14C65.3599 356.58 63.3799 361.62 63.3799 365.4C63.3799 367.2 65.3599 368.82 68.2399 369.54C69.3199 369.72 70.9399 369.9 72.3799 369.9C75.0799 369.9 83.8999 363.06 87.6799 359.46C108.74 338.94 117.02 330.12 117.02 293.4C117.02 288.36 116.84 279 116.84 274.32V253.62Z" fill="#F4DEE1"/>
<path d="M143.751 297C143.751 325.26 156.531 333.54 172.731 333.54C186.411 333.54 196.851 326.16 206.031 313.92C205.851 324 204.231 330.84 204.231 331.92C204.231 333 204.231 333.72 205.671 333.54C210.711 333 217.911 331.74 229.071 331.74C230.151 331.74 230.151 330.12 229.071 330.12C220.251 330.12 219.531 328.5 219.531 310.32V241.92C219.531 241.02 216.831 240.3 216.291 240.66C210.171 244.08 203.511 247.14 194.511 248.76C193.071 248.94 193.071 250.56 194.511 250.38C203.511 248.76 206.031 248.4 206.031 263.88V311.76C197.391 323.28 190.011 328.14 178.671 328.14C167.691 328.14 157.431 321.12 157.431 298.8V241.92C157.431 241.02 154.731 240.3 154.191 240.66C148.071 244.08 141.231 247.14 132.231 248.76C130.791 248.94 130.791 250.56 132.231 250.38C141.231 248.76 143.751 248.4 143.751 263.88V297Z" fill="#F4DEE1"/>
<path d="M321.338 276.48C321.338 248.22 308.198 239.94 291.998 239.94C278.138 239.94 267.878 247.32 258.698 259.56C258.338 252.18 254.558 244.98 251.318 241.74C250.778 241.2 250.598 241.2 250.238 241.56C247.178 244.62 240.338 247.86 237.098 249.12C236.738 249.3 236.558 249.66 237.098 250.2C241.238 253.98 245.378 258.66 245.378 263.88V310.32C245.378 327.96 245.018 330.12 237.278 330.12C235.838 330.12 235.838 331.74 237.278 331.74C242.498 331.74 251.858 331.38 254.558 331.38C257.438 331.38 266.798 331.74 268.238 331.74C269.678 331.74 269.678 330.12 268.238 330.12H258.878V261.72C267.338 250.38 274.718 245.34 286.058 245.34C297.038 245.34 307.658 252.36 307.838 274.68L308.018 313.02C308.018 328.86 306.038 330.12 298.658 330.12C297.218 330.12 297.218 331.74 298.658 331.74C303.878 331.74 311.258 331.38 313.958 331.38C316.838 331.38 328.538 331.74 329.978 331.74C331.418 331.74 331.418 330.12 329.978 330.12C323.858 330.3 321.338 329.94 321.338 314.1V276.48Z" fill="#F4DEE1"/>
<path d="M384.612 333.54C411.792 333.54 430.692 310.68 440.232 288.54C441.132 286.56 439.872 286.02 438.972 288.18C429.072 309.6 415.752 323.1 393.792 323.1C369.492 323.1 350.232 305.82 350.232 283.68C350.232 278.64 350.772 273.96 351.672 269.82H413.232C418.812 269.82 420.432 267.3 420.792 264.24C421.872 255.96 415.392 239.94 389.472 239.94C364.632 239.94 339.432 263.34 339.432 290.34C339.432 315.18 357.072 333.54 384.612 333.54ZM396.312 267.66C384.612 267.66 372.372 268.38 352.032 268.38C356.712 252.18 368.952 243.9 384.432 243.9C398.292 243.9 405.132 253.44 405.132 260.28C405.132 262.62 404.592 264.78 403.512 266.04C402.972 266.58 398.832 267.66 396.312 267.66Z" fill="#F4DEE1"/>
<path d="M566.42 341.92C574.88 341.92 609.26 342.28 613.94 342.28C619.7 342.28 621.5 341.92 621.86 341.56C622.94 340.12 625.28 323.92 627.44 308.44L629.24 296.02C629.42 294.76 627.44 294.76 627.26 295.84L625.46 308.08C623.12 324.28 614.66 330.04 600.44 330.22C586.58 330.58 558.86 330.58 545.9 330.58C556.16 320.32 566.06 311.14 575.6 302.68C601.88 279.46 624.2 262.18 624.2 244.54C624.2 225.46 608.9 214.3 583.88 214.3C566.42 214.3 553.82 218.98 539.78 223.12C537.98 223.3 537.8 225.46 537.8 227.08C537.8 231.58 541.4 252.64 541.4 272.98C541.4 274.6 543.02 274.6 543.02 272.98C543.02 228.7 553.46 215.92 581 215.92C600.44 215.92 609.26 227.98 609.26 244.9C609.26 265.24 598.46 279.1 574.52 301.42C563.54 311.5 552.56 321.4 535.46 335.62C534.56 336.34 535.1 342.46 535.1 342.46C537.26 342.46 554.54 341.92 566.42 341.92Z" fill="#F4DEE1"/>
<path d="M697.201 343.54C709.261 343.54 721.141 337.96 727.981 333.1C739.321 325.18 753.001 304.66 753.001 278.2C753.001 237.52 737.881 215.2 701.161 215.2C690.361 215.2 675.061 222.04 668.221 227.08C655.621 236.44 645.181 252.64 645.181 280.36C645.181 323.74 663.541 343.54 697.201 343.54ZM703.861 336.52C672.721 336.52 658.321 314.02 658.321 278.74C658.321 250.3 662.101 235.54 669.121 227.8C676.141 224.02 686.041 221.86 695.941 221.86C726.361 221.86 740.041 242.38 740.041 279.28C740.041 303.58 737.521 321.58 727.261 332.2C722.581 334.54 712.501 336.52 703.861 336.52Z" fill="#F4DEE1"/>
<path d="M783.251 363.88C788.111 361 799.091 351.46 799.091 340.3C799.091 328.96 794.231 321.94 786.311 321.94C779.471 321.94 775.511 326.8 775.511 332.38C775.511 337.6 779.651 341.74 784.871 341.74C788.471 341.74 791.171 340.12 792.611 337.42C793.331 339.22 793.691 341.2 793.691 343.36C793.691 354.16 787.751 360.28 782.711 363.16C781.631 363.88 782.351 364.42 783.251 363.88Z" fill="#F4DEE1"/>
<path d="M950.42 341.92C958.88 341.92 993.26 342.28 997.94 342.28C1003.7 342.28 1005.5 341.92 1005.86 341.56C1006.94 340.12 1009.28 323.92 1011.44 308.44L1013.24 296.02C1013.42 294.76 1011.44 294.76 1011.26 295.84L1009.46 308.08C1007.12 324.28 998.66 330.04 984.44 330.22C970.58 330.58 942.86 330.58 929.9 330.58C940.16 320.32 950.06 311.14 959.6 302.68C985.88 279.46 1008.2 262.18 1008.2 244.54C1008.2 225.46 992.9 214.3 967.88 214.3C950.42 214.3 937.82 218.98 923.78 223.12C921.98 223.3 921.8 225.46 921.8 227.08C921.8 231.58 925.4 252.64 925.4 272.98C925.4 274.6 927.02 274.6 927.02 272.98C927.02 228.7 937.46 215.92 965 215.92C984.44 215.92 993.26 227.98 993.26 244.9C993.26 265.24 982.46 279.1 958.52 301.42C947.54 311.5 936.56 321.4 919.46 335.62C918.56 336.34 919.1 342.46 919.1 342.46C921.26 342.46 938.54 341.92 950.42 341.92Z" fill="#F4DEE1"/>
<path d="M1081.2 343.54C1093.26 343.54 1105.14 337.96 1111.98 333.1C1123.32 325.18 1137 304.66 1137 278.2C1137 237.52 1121.88 215.2 1085.16 215.2C1074.36 215.2 1059.06 222.04 1052.22 227.08C1039.62 236.44 1029.18 252.64 1029.18 280.36C1029.18 323.74 1047.54 343.54 1081.2 343.54ZM1087.86 336.52C1056.72 336.52 1042.32 314.02 1042.32 278.74C1042.32 250.3 1046.1 235.54 1053.12 227.8C1060.14 224.02 1070.04 221.86 1079.94 221.86C1110.36 221.86 1124.04 242.38 1124.04 279.28C1124.04 303.58 1121.52 321.58 1111.26 332.2C1106.58 334.54 1096.5 336.52 1087.86 336.52Z" fill="#F4DEE1"/>
<path d="M1182.28 341.92C1190.74 341.92 1225.12 342.28 1229.8 342.28C1235.56 342.28 1237.36 341.92 1237.72 341.56C1238.8 340.12 1241.14 323.92 1243.3 308.44L1245.1 296.02C1245.28 294.76 1243.3 294.76 1243.12 295.84L1241.32 308.08C1238.98 324.28 1230.52 330.04 1216.3 330.22C1202.44 330.58 1174.72 330.58 1161.76 330.58C1172.02 320.32 1181.92 311.14 1191.46 302.68C1217.74 279.46 1240.06 262.18 1240.06 244.54C1240.06 225.46 1224.76 214.3 1199.74 214.3C1182.28 214.3 1169.68 218.98 1155.64 223.12C1153.84 223.3 1153.66 225.46 1153.66 227.08C1153.66 231.58 1157.26 252.64 1157.26 272.98C1157.26 274.6 1158.88 274.6 1158.88 272.98C1158.88 228.7 1169.32 215.92 1196.86 215.92C1216.3 215.92 1225.12 227.98 1225.12 244.9C1225.12 265.24 1214.32 279.1 1190.38 301.42C1179.4 311.5 1168.42 321.4 1151.32 335.62C1150.42 336.34 1150.96 342.46 1150.96 342.46C1153.12 342.46 1170.4 341.92 1182.28 341.92Z" fill="#F4DEE1"/>
<path d="M1313.06 343.54C1325.12 343.54 1337 337.96 1343.84 333.1C1355.18 325.18 1368.86 304.66 1368.86 278.2C1368.86 237.52 1353.74 215.2 1317.02 215.2C1306.22 215.2 1290.92 222.04 1284.08 227.08C1271.48 236.44 1261.04 252.64 1261.04 280.36C1261.04 323.74 1279.4 343.54 1313.06 343.54ZM1319.72 336.52C1288.58 336.52 1274.18 314.02 1274.18 278.74C1274.18 250.3 1277.96 235.54 1284.98 227.8C1292 224.02 1301.9 221.86 1311.8 221.86C1342.22 221.86 1355.9 242.38 1355.9 279.28C1355.9 303.58 1353.38 321.58 1343.12 332.2C1338.44 334.54 1328.36 336.52 1319.72 336.52Z" fill="#F4DEE1"/>
<path d="M99.3802 515.12C99.3802 559.4 98.4802 560.12 89.6602 560.12H87.3202C85.8802 560.12 85.8802 561.74 87.3202 561.74C92.3602 561.74 103.7 561.2 106.4 561.2C108.92 561.2 121.34 561.74 126.38 561.74C127.82 561.74 127.82 560.12 126.38 560.12H122.78C113.96 560.12 113.06 559.4 113.06 515.12V499.82C119.9 500 133.4 500.18 146.36 500.18L178.22 500V515.12C178.22 559.4 177.32 560.12 168.5 560.12H164.72C163.28 560.12 163.28 561.74 164.72 561.74C169.94 561.74 182.18 561.2 184.88 561.2C187.58 561.2 199.1 561.74 204.32 561.74C205.76 561.74 205.76 560.12 204.32 560.12H201.44C192.8 560.12 191.9 559.4 191.9 515.12V483.62C191.9 439.34 192.8 438.62 201.44 438.62H204.32C205.76 438.62 205.76 437 204.32 437C199.1 437 187.58 437.54 184.88 437.54C182.18 437.54 169.94 437 164.72 437C163.28 437 163.28 438.62 164.72 438.62H168.5C177.32 438.62 178.22 439.34 178.22 483.62V498.2L146.18 497.66L113.06 498.02V483.62C113.06 439.34 113.96 438.62 122.78 438.62H126.38C127.82 438.62 127.82 437 126.38 437C121.34 437 108.92 437.54 106.4 437.54C103.7 437.54 92.3602 437 87.3202 437C85.8802 437 85.8802 438.62 87.3202 438.62H89.6602C98.4802 438.62 99.3802 439.34 99.3802 483.62V515.12Z" fill="#F4DEE1"/>
<path d="M220.392 527C220.392 555.26 233.172 563.54 249.372 563.54C263.052 563.54 273.492 556.16 282.672 543.92C282.492 554 280.872 560.84 280.872 561.92C280.872 563 280.872 563.72 282.312 563.54C287.352 563 294.552 561.74 305.712 561.74C306.792 561.74 306.792 560.12 305.712 560.12C296.892 560.12 296.172 558.5 296.172 540.32V471.92C296.172 471.02 293.472 470.3 292.932 470.66C286.812 474.08 280.152 477.14 271.152 478.76C269.712 478.94 269.712 480.56 271.152 480.38C280.152 478.76 282.672 478.4 282.672 493.88V541.76C274.032 553.28 266.652 558.14 255.312 558.14C244.332 558.14 234.072 551.12 234.072 528.8V471.92C234.072 471.02 231.372 470.3 230.832 470.66C224.712 474.08 217.872 477.14 208.872 478.76C207.432 478.94 207.432 480.56 208.872 480.38C217.872 478.76 220.392 478.4 220.392 493.88V527Z" fill="#F4DEE1"/>
<path d="M390.059 478.4C384.479 474.08 376.559 469.94 367.019 469.94C341.099 469.94 315.359 491.54 315.359 521.24C315.359 546.08 332.639 563.54 353.159 563.54C367.199 563.54 381.419 555.98 390.059 543.38C389.879 553.64 388.799 560.84 388.799 561.92C388.799 563.18 389.519 563.9 390.959 563.54C396.899 562.28 401.759 561.74 412.739 561.74C414.179 561.74 414.179 560.12 412.739 560.12C403.739 560.12 403.559 557.96 403.559 540.32V416.66C403.559 415.76 400.499 415.04 399.959 415.4C393.839 418.82 387.179 422.06 378.179 423.68C376.739 423.86 376.739 425.48 378.179 425.3C387.179 423.68 390.059 423.68 390.059 439.16V478.4ZM359.459 473.9C372.599 473.9 383.579 484.88 390.059 491.72V540.5C383.939 550.58 373.319 557.6 362.339 557.6C340.019 557.6 327.959 535.1 327.959 514.04C327.959 487.58 340.019 473.9 359.459 473.9Z" fill="#F4DEE1"/>
<path d="M423.653 496.76C423.653 511.16 438.953 516.92 454.073 521.96C468.653 526.82 482.693 531.5 482.693 543.92C482.693 553.82 476.753 561.92 459.293 561.92C433.733 561.92 425.813 548.24 425.813 522.5C425.813 520.88 424.373 520.88 424.373 522.5C424.373 547.88 423.293 551.84 423.293 554.54C423.293 556.16 423.653 556.88 424.553 557.06C431.753 559.04 440.753 563.54 459.293 563.54C477.473 563.54 491.513 551.84 491.513 535.82C491.513 519.8 475.853 514.22 460.733 509C446.333 503.96 432.293 499.28 432.293 487.04C432.293 477.68 442.373 471.38 457.133 471.38C478.373 471.38 485.933 484.16 485.933 505.94C485.933 507.38 487.373 507.38 487.373 505.94C487.373 499.64 488.273 480.2 488.273 474.44C488.273 473.72 488.093 473.18 487.013 473C476.573 471.38 471.713 469.94 456.953 469.94C442.013 469.94 423.653 478.22 423.653 496.76Z" fill="#F4DEE1"/>
<path d="M547.734 563.54C574.914 563.54 594.894 538.7 594.894 515.48C594.894 487.76 575.994 469.94 550.614 469.94C522.894 469.94 503.094 492.62 503.094 518.54C503.094 545.72 522.354 563.54 547.734 563.54ZM550.794 561.56C529.914 561.56 518.034 537.62 518.034 515.48C518.034 489.2 527.394 471.74 548.454 471.74C568.254 471.74 580.314 495.86 580.314 518.36C580.314 545 569.874 561.56 550.794 561.56Z" fill="#F4DEE1"/>
<path d="M690.303 506.48C690.303 478.22 677.163 469.94 660.963 469.94C647.103 469.94 636.843 477.32 627.663 489.56C627.303 482.18 623.523 474.98 620.283 471.74C619.743 471.2 619.563 471.2 619.203 471.56C616.143 474.62 609.303 477.86 606.063 479.12C605.703 479.3 605.523 479.66 606.063 480.2C610.203 483.98 614.343 488.66 614.343 493.88V540.32C614.343 557.96 613.983 560.12 606.243 560.12C604.803 560.12 604.803 561.74 606.243 561.74C611.463 561.74 620.823 561.38 623.523 561.38C626.403 561.38 635.763 561.74 637.203 561.74C638.643 561.74 638.643 560.12 637.203 560.12H627.843V491.72C636.303 480.38 643.683 475.34 655.023 475.34C666.003 475.34 676.623 482.36 676.803 504.68L676.983 543.02C676.983 558.86 675.003 560.12 667.623 560.12C666.183 560.12 666.183 561.74 667.623 561.74C672.843 561.74 680.223 561.38 682.923 561.38C685.803 561.38 697.503 561.74 698.943 561.74C700.383 561.74 700.383 560.12 698.943 560.12C692.823 560.3 690.303 559.94 690.303 544.1V506.48Z" fill="#F4DEE1"/>
<path d="M723.158 583.88C728.018 581 738.998 571.46 738.998 560.3C738.998 548.96 734.138 541.94 726.218 541.94C719.378 541.94 715.418 546.8 715.418 552.38C715.418 557.6 719.558 561.74 724.778 561.74C728.378 561.74 731.078 560.12 732.518 557.42C733.238 559.22 733.598 561.2 733.598 563.36C733.598 574.16 727.658 580.28 722.618 583.16C721.538 583.88 722.258 584.42 723.158 583.88Z" fill="#F4DEE1"/>
<path d="M872.95 438.44C879.07 438.44 883.03 440.78 887.17 444.92C889.33 447.08 890.05 449.24 890.05 450.5L889.87 515.12C889.69 557.78 884.65 559.94 876.55 560.12H875.47C873.85 560.12 874.03 561.74 875.29 561.74C880.33 561.74 887.17 561.2 889.87 561.2C892.57 561.2 908.41 561.92 913.63 561.74C914.89 561.74 914.89 560.12 913.63 560.12H911.11C902.29 560.12 892.21 559.4 892.21 515.12L892.39 450.14L979.15 558.32C980.59 560.3 982.57 562.28 983.65 562.28C984.91 562.28 985.09 561.56 985.09 560.48V483.62C985.09 439.34 987.79 438.62 996.61 438.62H997.87C999.31 438.62 999.31 437 997.87 437C992.65 437 986.35 437.54 983.83 437.54C981.13 437.54 964.93 437 959.71 437C958.27 437 958.27 438.62 959.71 438.62H962.23C970.87 438.62 982.75 439.34 982.75 483.62V539.96L907.87 446.9C904.99 443.48 902.11 439.7 900.85 437.36C900.49 436.64 899.95 436.28 899.05 436.28C897.79 436.28 890.95 437 872.23 437C870.97 437 870.97 438.44 872.23 438.44H872.95Z" fill="#F4DEE1"/>
<path d="M1083.88 470.12C1087.66 463.46 1103.14 438.62 1113.4 438.62H1113.76C1115.02 438.62 1115.56 437 1114.12 437C1109.62 437 1096.84 437.36 1094.5 437.36C1091.44 437.36 1078.84 437 1075.6 437C1073.8 437 1073.44 437.54 1073.44 438.08C1073.44 438.62 1073.8 439.16 1074.7 439.16C1075.42 439.16 1078.3 438.44 1079.74 438.44C1097.2 438.44 1086.04 462.56 1081.9 469.58L1062.82 502.52L1045.72 471.02C1032.22 446.36 1029.16 438.62 1038.16 438.62H1041.94C1043.38 438.62 1042.84 437 1041.4 437C1036.18 437 1022.32 437.54 1019.62 437.54C1016.92 437.54 1007.02 437 1001.8 437C1001.08 437 1000.72 437.36 1000.72 437.9C1000.72 438.26 1001.08 438.62 1001.98 438.62H1003.42C1012.6 438.62 1017.28 445.1 1031.14 470.12L1050.58 505.22V515.12C1050.58 559.4 1049.68 560.12 1040.86 560.12H1037.62C1036.18 560.12 1036.18 561.74 1037.62 561.74C1042.66 561.74 1054.9 561.2 1057.42 561.2C1060.12 561.2 1072 561.74 1077.04 561.74C1078.48 561.74 1078.48 560.12 1077.04 560.12H1073.8C1064.98 560.12 1064.08 559.4 1064.08 515.12V504.68L1083.88 470.12Z" fill="#F4DEE1"/>
<path d="M1254.46 490.788V492.876H1249.97V497.604H1247.59V492.876H1243.13V490.788H1247.59V486.348H1249.97V490.788H1254.46Z" fill="#1A376B"/>
<path d="M1266.63 500.028C1265.4 500.028 1264.41 499.708 1263.66 499.068C1262.92 498.412 1262.55 497.548 1262.55 496.476C1262.55 495.9 1262.67 495.38 1262.91 494.916C1263.17 494.452 1263.54 494.068 1264.02 493.764C1264.45 493.508 1264.97 493.3 1265.58 493.14C1266.18 492.964 1266.97 492.812 1267.93 492.684L1270.47 492.372V492.06C1270.47 491.164 1270.29 490.516 1269.92 490.116C1269.57 489.7 1269.01 489.492 1268.24 489.492C1267.54 489.492 1266.98 489.676 1266.56 490.044C1266.16 490.396 1265.94 490.916 1265.89 491.604H1262.94C1263.03 490.324 1263.55 489.316 1264.5 488.58C1265.44 487.828 1266.69 487.452 1268.24 487.452C1270.02 487.452 1271.31 487.852 1272.13 488.652C1272.96 489.436 1273.38 490.7 1273.38 492.444V496.02C1273.38 497.652 1273.5 498.892 1273.74 499.74H1270.86C1270.74 499.084 1270.68 498.396 1270.66 497.676C1270.38 498.412 1269.87 498.988 1269.15 499.404C1268.45 499.82 1267.61 500.028 1266.63 500.028ZM1267.57 497.988C1268.46 497.988 1269.18 497.7 1269.73 497.124C1270.27 496.548 1270.54 495.78 1270.54 494.82V494.052L1267.83 494.46C1267.03 494.588 1266.45 494.804 1266.08 495.108C1265.71 495.412 1265.53 495.82 1265.53 496.332C1265.53 496.844 1265.7 497.252 1266.06 497.556C1266.42 497.844 1266.93 497.988 1267.57 497.988Z" fill="#1A376B"/>
<path d="M1280.69 500.028C1279.73 500.028 1278.88 499.772 1278.15 499.26C1277.41 498.732 1276.84 497.996 1276.44 497.052C1276.04 496.092 1275.84 494.996 1275.84 493.764C1275.84 492.532 1276.05 491.436 1276.47 490.476C1276.9 489.516 1277.5 488.772 1278.27 488.244C1279.03 487.716 1279.91 487.452 1280.91 487.452C1282.52 487.452 1283.67 488.116 1284.36 489.444V482.34H1287.24V499.74H1284.53V497.58C1284.19 498.348 1283.69 498.948 1283.02 499.38C1282.36 499.812 1281.59 500.028 1280.69 500.028ZM1281.67 497.82C1282.52 497.82 1283.19 497.492 1283.69 496.836C1284.19 496.164 1284.43 495.268 1284.43 494.148V493.38C1284.43 492.212 1284.19 491.3 1283.69 490.644C1283.19 489.988 1282.51 489.66 1281.65 489.66C1280.77 489.66 1280.08 490.02 1279.59 490.74C1279.09 491.444 1278.84 492.436 1278.84 493.716C1278.84 494.996 1279.09 496.004 1279.59 496.74C1280.1 497.46 1280.79 497.82 1281.67 497.82Z" fill="#1A376B"/>
<path d="M1295.06 500.028C1294.1 500.028 1293.25 499.772 1292.51 499.26C1291.78 498.732 1291.21 497.996 1290.81 497.052C1290.41 496.092 1290.21 494.996 1290.21 493.764C1290.21 492.532 1290.42 491.436 1290.83 490.476C1291.27 489.516 1291.87 488.772 1292.63 488.244C1293.4 487.716 1294.28 487.452 1295.27 487.452C1296.89 487.452 1298.04 488.116 1298.73 489.444V482.34H1301.61V499.74H1298.9V497.58C1298.56 498.348 1298.06 498.948 1297.39 499.38C1296.73 499.812 1295.95 500.028 1295.06 500.028ZM1296.04 497.82C1296.89 497.82 1297.56 497.492 1298.06 496.836C1298.55 496.164 1298.8 495.268 1298.8 494.148V493.38C1298.8 492.212 1298.55 491.3 1298.06 490.644C1297.56 489.988 1296.88 489.66 1296.02 489.66C1295.14 489.66 1294.45 490.02 1293.95 490.74C1293.46 491.444 1293.21 492.436 1293.21 493.716C1293.21 494.996 1293.46 496.004 1293.95 496.74C1294.47 497.46 1295.16 497.82 1296.04 497.82Z" fill="#1A376B"/>
<path d="M1310 487.74H1312.16V484.716L1315.04 483.564V487.74H1317.97V489.828H1315.04V495.564C1315.04 496.22 1315.18 496.7 1315.47 497.004C1315.76 497.308 1316.2 497.46 1316.79 497.46C1317.19 497.46 1317.58 497.412 1317.97 497.316V499.74C1317.26 499.884 1316.61 499.956 1316 499.956C1314.62 499.956 1313.64 499.62 1313.05 498.948C1312.45 498.276 1312.16 497.3 1312.16 496.02V489.828H1310V487.74Z" fill="#1A376B"/>
<path d="M1325.1 500.028C1323.95 500.028 1322.93 499.78 1322.03 499.284C1321.15 498.788 1320.46 498.068 1319.97 497.124C1319.47 496.164 1319.22 495.028 1319.22 493.716C1319.22 492.404 1319.47 491.276 1319.97 490.332C1320.46 489.388 1321.15 488.676 1322.03 488.196C1322.93 487.7 1323.95 487.452 1325.1 487.452C1326.26 487.452 1327.27 487.7 1328.15 488.196C1329.05 488.676 1329.74 489.388 1330.24 490.332C1330.74 491.276 1330.98 492.404 1330.98 493.716C1330.98 495.028 1330.74 496.164 1330.24 497.124C1329.74 498.068 1329.05 498.788 1328.15 499.284C1327.27 499.78 1326.26 500.028 1325.1 500.028ZM1325.1 497.844C1326.03 497.844 1326.75 497.5 1327.26 496.812C1327.78 496.108 1328.03 495.076 1328.03 493.716C1328.03 492.372 1327.78 491.356 1327.26 490.668C1326.77 489.98 1326.05 489.636 1325.1 489.636C1324.16 489.636 1323.43 489.98 1322.92 490.668C1322.41 491.356 1322.15 492.372 1322.15 493.716C1322.15 495.06 1322.41 496.084 1322.92 496.788C1323.43 497.492 1324.16 497.844 1325.1 497.844Z" fill="#1A376B"/>
<path d="M1248.08 529.028C1246.89 529.028 1245.85 528.772 1244.96 528.26C1244.08 527.732 1243.4 526.996 1242.92 526.052C1242.44 525.108 1242.2 524.004 1242.2 522.74C1242.2 520.788 1242.73 519.252 1243.78 518.132C1244.84 517.012 1246.28 516.452 1248.1 516.452C1249.59 516.452 1250.8 516.836 1251.73 517.604C1252.65 518.356 1253.21 519.412 1253.38 520.772L1250.57 521.228C1250.48 520.412 1250.21 519.788 1249.76 519.356C1249.33 518.924 1248.75 518.708 1248.03 518.708C1247.13 518.708 1246.43 519.06 1245.92 519.764C1245.41 520.468 1245.15 521.436 1245.15 522.668C1245.15 523.964 1245.41 524.972 1245.92 525.692C1246.43 526.396 1247.15 526.748 1248.08 526.748C1248.8 526.748 1249.37 526.532 1249.81 526.1C1250.25 525.668 1250.54 525.028 1250.67 524.18L1253.38 524.732C1253.17 526.06 1252.59 527.108 1251.63 527.876C1250.69 528.644 1249.5 529.028 1248.08 529.028Z" fill="#1A376B"/>
<path d="M1259.14 529.028C1257.91 529.028 1256.92 528.708 1256.17 528.068C1255.43 527.412 1255.06 526.548 1255.06 525.476C1255.06 524.9 1255.18 524.38 1255.42 523.916C1255.68 523.452 1256.05 523.068 1256.53 522.764C1256.96 522.508 1257.48 522.3 1258.09 522.14C1258.7 521.964 1259.48 521.812 1260.44 521.684L1262.98 521.372V521.06C1262.98 520.164 1262.8 519.516 1262.43 519.116C1262.08 518.7 1261.52 518.492 1260.75 518.492C1260.05 518.492 1259.49 518.676 1259.07 519.044C1258.67 519.396 1258.45 519.916 1258.4 520.604H1255.45C1255.54 519.324 1256.06 518.316 1257.01 517.58C1257.95 516.828 1259.2 516.452 1260.75 516.452C1262.53 516.452 1263.82 516.852 1264.64 517.652C1265.47 518.436 1265.89 519.7 1265.89 521.444V525.02C1265.89 526.652 1266.01 527.892 1266.25 528.74H1263.37C1263.26 528.084 1263.19 527.396 1263.18 526.676C1262.89 527.412 1262.38 527.988 1261.66 528.404C1260.96 528.82 1260.12 529.028 1259.14 529.028ZM1260.08 526.988C1260.98 526.988 1261.7 526.7 1262.24 526.124C1262.78 525.548 1263.06 524.78 1263.06 523.82V523.052L1260.34 523.46C1259.54 523.588 1258.96 523.804 1258.59 524.108C1258.22 524.412 1258.04 524.82 1258.04 525.332C1258.04 525.844 1258.22 526.252 1258.57 526.556C1258.94 526.844 1259.44 526.988 1260.08 526.988Z" fill="#1A376B"/>
<path d="M1272.43 511.34V528.74H1269.55V511.34H1272.43Z" fill="#1A376B"/>
<path d="M1286.57 523.46H1278.15C1278.16 524.468 1278.46 525.276 1279.03 525.884C1279.63 526.476 1280.39 526.772 1281.34 526.772C1282.03 526.772 1282.62 526.604 1283.11 526.268C1283.61 525.932 1283.99 525.436 1284.27 524.78L1286.47 525.788C1286.03 526.828 1285.35 527.628 1284.43 528.188C1283.54 528.748 1282.47 529.028 1281.24 529.028C1279.4 529.028 1277.96 528.492 1276.92 527.42C1275.88 526.332 1275.36 524.812 1275.36 522.86C1275.36 520.876 1275.87 519.316 1276.87 518.18C1277.9 517.028 1279.31 516.452 1281.1 516.452C1282.84 516.452 1284.19 516.948 1285.13 517.94C1286.09 518.916 1286.57 520.316 1286.57 522.14V523.46ZM1283.74 521.372C1283.74 520.396 1283.51 519.652 1283.04 519.14C1282.58 518.628 1281.91 518.372 1281.05 518.372C1280.14 518.372 1279.43 518.652 1278.94 519.212C1278.44 519.772 1278.18 520.556 1278.15 521.564H1283.74V521.372Z" fill="#1A376B"/>
<path d="M1289.52 516.74H1292.25V519.068C1293.07 517.308 1294.4 516.428 1296.24 516.428C1297.55 516.428 1298.54 516.844 1299.21 517.676C1299.89 518.492 1300.22 519.7 1300.22 521.3V528.74H1297.32V521.588C1297.32 519.7 1296.57 518.756 1295.09 518.756C1294.24 518.756 1293.57 519.076 1293.09 519.716C1292.63 520.356 1292.4 521.244 1292.4 522.38V528.74H1289.52V516.74Z" fill="#1A376B"/>
<path d="M1307.61 529.028C1306.65 529.028 1305.8 528.772 1305.06 528.26C1304.33 527.732 1303.76 526.996 1303.36 526.052C1302.96 525.092 1302.76 523.996 1302.76 522.764C1302.76 521.532 1302.97 520.436 1303.38 519.476C1303.82 518.516 1304.42 517.772 1305.18 517.244C1305.95 516.716 1306.83 516.452 1307.82 516.452C1309.44 516.452 1310.59 517.116 1311.28 518.444V511.34H1314.16V528.74H1311.45V526.58C1311.11 527.348 1310.61 527.948 1309.94 528.38C1309.28 528.812 1308.5 529.028 1307.61 529.028ZM1308.59 526.82C1309.44 526.82 1310.11 526.492 1310.61 525.836C1311.1 525.164 1311.35 524.268 1311.35 523.148V522.38C1311.35 521.212 1311.1 520.3 1310.61 519.644C1310.11 518.988 1309.43 518.66 1308.57 518.66C1307.69 518.66 1307 519.02 1306.5 519.74C1306.01 520.444 1305.76 521.436 1305.76 522.716C1305.76 523.996 1306.01 525.004 1306.5 525.74C1307.02 526.46 1307.71 526.82 1308.59 526.82Z" fill="#1A376B"/>
<path d="M1321.14 529.028C1319.9 529.028 1318.91 528.708 1318.16 528.068C1317.42 527.412 1317.06 526.548 1317.06 525.476C1317.06 524.9 1317.18 524.38 1317.42 523.916C1317.67 523.452 1318.04 523.068 1318.52 522.764C1318.95 522.508 1319.47 522.3 1320.08 522.14C1320.69 521.964 1321.47 521.812 1322.43 521.684L1324.98 521.372V521.06C1324.98 520.164 1324.79 519.516 1324.42 519.116C1324.07 518.7 1323.51 518.492 1322.74 518.492C1322.04 518.492 1321.48 518.676 1321.06 519.044C1320.66 519.396 1320.44 519.916 1320.39 520.604H1317.44C1317.54 519.324 1318.06 518.316 1319 517.58C1319.94 516.828 1321.19 516.452 1322.74 516.452C1324.52 516.452 1325.82 516.852 1326.63 517.652C1327.46 518.436 1327.88 519.7 1327.88 521.444V525.02C1327.88 526.652 1328 527.892 1328.24 528.74H1325.36C1325.25 528.084 1325.18 527.396 1325.17 526.676C1324.88 527.412 1324.38 527.988 1323.66 528.404C1322.95 528.82 1322.11 529.028 1321.14 529.028ZM1322.07 526.988C1322.97 526.988 1323.69 526.7 1324.23 526.124C1324.78 525.548 1325.05 524.78 1325.05 523.82V523.052L1322.34 523.46C1321.54 523.588 1320.95 523.804 1320.58 524.108C1320.22 524.412 1320.03 524.82 1320.03 525.332C1320.03 525.844 1320.21 526.252 1320.56 526.556C1320.93 526.844 1321.43 526.988 1322.07 526.988Z" fill="#1A376B"/>
<path d="M1334.11 519.644C1334.43 518.652 1334.91 517.876 1335.55 517.316C1336.19 516.74 1336.98 516.452 1337.93 516.452C1338.07 516.452 1338.18 516.46 1338.26 516.476V519.236H1337.88C1336.81 519.236 1335.98 519.516 1335.38 520.076C1334.95 520.508 1334.66 521.02 1334.52 521.612C1334.38 522.204 1334.3 522.908 1334.3 523.724V528.74H1331.42V516.74H1334.11V519.644Z" fill="#1A376B"/>
</svg>
