<svg width="375" height="812" viewBox="0 0 375 812" fill="none" xmlns="http://www.w3.org/2000/svg">
<path d="M75.9354 398.904C76.6554 398.904 80.3514 399 81.7434 399C82.1274 399 82.1274 398.568 81.7434 398.568H79.2954C77.6154 398.568 77.0394 398.28 77.0394 386.52V384.792C79.3914 384.792 81.7434 384.792 84.1434 384.84C91.4394 384.84 96.5274 380.856 96.5274 374.952C96.5274 369 91.6314 365.736 83.8554 365.736C82.9914 365.736 75.9354 365.88 75.2634 365.88C74.5434 365.88 71.2794 365.736 69.9354 365.736C69.5514 365.736 69.5514 366.168 69.9354 366.168H70.7994C73.1514 366.168 73.3914 366.36 73.3914 378.168V384.552C73.3914 386.76 73.3434 391.512 73.2474 394.152C73.1514 396.744 72.9594 397.8 72.2874 398.472C73.0074 398.424 72.3834 398.568 70.0794 398.568C69.6954 398.568 69.6954 399 70.0794 399C70.4634 399 75.2154 398.904 75.9354 398.904ZM77.0394 373.416C77.0394 366.36 77.1354 366.216 78.9114 366.216H83.1354C89.2794 366.216 92.3994 369.096 92.3994 374.904C92.3994 380.664 89.0394 384.312 83.0874 384.312H77.0394V373.416ZM104.269 398.904C104.989 398.904 106.861 399 108.253 399C108.637 399 108.637 398.568 108.253 398.568C105.613 398.568 105.421 398.28 105.421 393.288V360.312C105.421 360.072 104.701 359.88 104.557 359.976C102.925 360.888 101.149 361.704 98.7489 362.136C98.3649 362.184 98.3649 362.616 98.7489 362.568C101.149 362.136 101.821 362.184 101.821 366.312V393.288C101.821 397.992 101.725 398.568 99.6609 398.568C99.2769 398.568 99.2769 399 99.6609 399C101.053 399 103.549 398.904 104.269 398.904ZM122.547 399.48C129.795 399.48 134.835 393.384 137.379 387.48C137.619 386.952 137.283 386.808 137.043 387.384C134.403 393.096 130.851 396.696 124.995 396.696C118.515 396.696 113.379 392.088 113.379 386.184C113.379 384.84 113.523 383.592 113.763 382.488H130.179C131.667 382.488 132.099 381.816 132.195 381C132.483 378.792 130.755 374.52 123.843 374.52C117.219 374.52 110.499 380.76 110.499 387.96C110.499 394.584 115.203 399.48 122.547 399.48ZM125.667 381.912C122.547 381.912 119.283 382.104 113.859 382.104C115.107 377.784 118.371 375.576 122.499 375.576C126.195 375.576 128.019 378.12 128.019 379.944C128.019 380.568 127.875 381.144 127.587 381.48C127.443 381.624 126.339 381.912 125.667 381.912ZM142.558 399.528C145.918 399.528 150.958 394.344 152.254 392.136C152.158 393.144 152.062 394.824 152.062 396.072C152.062 398.232 152.974 399.48 154.798 399.48C156.67 399.48 159.694 396.696 160.462 395.592C160.702 395.208 160.126 394.824 159.886 395.208C159.358 396.168 158.158 397.848 157.294 397.848C156.286 397.848 155.95 396.504 155.95 393.768C155.95 391.896 156.334 386.472 156.334 383.256C156.334 376.968 152.926 374.52 148.222 374.52C144.814 374.52 140.782 376.536 138.862 377.784C137.662 378.552 137.182 379.464 137.182 380.04C137.182 380.712 137.95 381.144 139.102 381.144C140.398 381.144 140.83 380.904 141.262 380.28C142.318 378.744 143.23 374.952 147.454 374.952C150.862 374.952 152.398 376.776 152.59 382.776L148.606 384.312C139.726 387.768 136.606 390.936 136.606 394.152C136.606 397.08 138.718 399.528 142.558 399.528ZM139.966 392.76C139.966 389.208 141.646 387.768 148.702 384.792L152.638 383.112V384.12C152.638 388.056 152.398 390.408 152.35 391.032C151.918 392.616 147.646 397.416 144.958 397.416C142.606 397.416 139.966 395.352 139.966 392.76ZM161.833 381.672C161.833 385.512 165.913 387.048 169.945 388.392C173.833 389.688 177.577 390.936 177.577 394.248C177.577 396.888 175.993 399.048 171.337 399.048C164.521 399.048 162.409 395.4 162.409 388.536C162.409 388.104 162.025 388.104 162.025 388.536C162.025 395.304 161.737 396.36 161.737 397.08C161.737 397.512 161.833 397.704 162.073 397.752C163.993 398.28 166.393 399.48 171.337 399.48C176.185 399.48 179.929 396.36 179.929 392.088C179.929 387.816 175.753 386.328 171.721 384.936C167.881 383.592 164.137 382.344 164.137 379.08C164.137 376.584 166.825 374.904 170.761 374.904C176.425 374.904 178.441 378.312 178.441 384.12C178.441 384.504 178.825 384.504 178.825 384.12C178.825 382.44 179.065 377.256 179.065 375.72C179.065 375.528 179.017 375.384 178.729 375.336C175.945 374.904 174.649 374.52 170.713 374.52C166.729 374.52 161.833 376.728 161.833 381.672ZM194.969 399.48C202.217 399.48 207.257 393.384 209.801 387.48C210.041 386.952 209.705 386.808 209.465 387.384C206.825 393.096 203.273 396.696 197.417 396.696C190.937 396.696 185.801 392.088 185.801 386.184C185.801 384.84 185.945 383.592 186.185 382.488H202.601C204.089 382.488 204.521 381.816 204.617 381C204.905 378.792 203.177 374.52 196.265 374.52C189.641 374.52 182.921 380.76 182.921 387.96C182.921 394.584 187.625 399.48 194.969 399.48ZM198.089 381.912C194.969 381.912 191.705 382.104 186.281 382.104C187.529 377.784 190.793 375.576 194.921 375.576C198.617 375.576 200.441 378.12 200.441 379.944C200.441 380.568 200.297 381.144 200.009 381.48C199.865 381.624 198.761 381.912 198.089 381.912ZM227.764 370.392C227.764 370.2 227.668 370.248 227.572 370.344L221.428 377.4C221.332 377.496 221.38 377.64 221.428 377.64H224.068V392.856C224.068 397.464 225.46 399.48 228.676 399.48C231.988 399.48 234.772 396.408 236.308 393.288C236.5 392.904 235.828 392.616 235.684 393C234.58 396.216 232.708 397.992 230.788 397.992C228.772 397.992 227.668 396.168 227.668 392.712V377.64C229.3 377.64 233.188 377.688 233.572 377.688C235.06 376.344 235.924 375.384 235.924 375.096C235.924 375 235.828 374.952 234.244 375C232.66 375.048 229.204 375.048 227.764 375.048V370.392ZM239.724 389.736C239.724 397.272 243.132 399.48 247.452 399.48C251.1 399.48 253.884 397.512 256.332 394.248C256.284 396.936 255.852 398.76 255.852 399.048C255.852 399.336 255.852 399.528 256.236 399.48C257.58 399.336 259.5 399 262.476 399C262.764 399 262.764 398.568 262.476 398.568C260.124 398.568 259.932 398.136 259.932 393.288V375.048C259.932 374.808 259.212 374.616 259.068 374.712C257.436 375.624 255.66 376.44 253.26 376.872C252.876 376.92 252.876 377.352 253.26 377.304C255.66 376.872 256.332 376.776 256.332 380.904V393.672C254.028 396.744 252.06 398.04 249.036 398.04C246.108 398.04 243.372 396.168 243.372 390.216V375.048C243.372 374.808 242.652 374.616 242.508 374.712C240.876 375.624 239.052 376.44 236.652 376.872C236.268 376.92 236.268 377.352 236.652 377.304C239.052 376.872 239.724 376.776 239.724 380.904V389.736ZM273.64 375.336C272.344 376.2 271.048 377.304 270.472 379.416C270.28 377.544 269.224 375.768 268.408 375C268.264 374.856 268.216 374.856 268.12 374.952C267.304 375.768 265.672 376.632 264.808 376.968C264.712 377.016 264.664 377.112 264.808 377.256C265.912 378.264 267.016 379.512 267.016 380.904V393.288C267.016 398.28 266.68 398.568 264.328 398.568C263.944 398.568 263.944 399 264.328 399C265.72 399 268.504 398.904 269.224 398.904C269.992 398.904 273.112 399 273.496 399C273.88 399 273.88 398.568 273.496 398.568H270.568V382.488C270.568 378.36 270.904 377.88 274.36 377.88H276.136C277.816 377.88 278.536 376.152 278.536 375.384C278.536 374.76 277.528 374.52 276.376 374.52C275.416 374.52 274.456 374.808 273.64 375.336ZM302.783 384.264C302.783 376.728 299.279 374.52 294.959 374.52C291.263 374.52 288.527 376.488 286.079 379.752C285.983 377.784 284.975 375.864 284.111 375C283.967 374.856 283.919 374.856 283.823 374.952C283.007 375.768 281.183 376.632 280.319 376.968C280.223 377.016 280.175 377.112 280.319 377.256C281.423 378.264 282.527 379.512 282.527 380.904V393.288C282.527 397.992 282.431 398.568 280.367 398.568C279.983 398.568 279.983 399 280.367 399C281.759 399 284.255 398.904 284.975 398.904C285.743 398.904 288.239 399 288.623 399C289.007 399 289.007 398.568 288.623 398.568H286.127V380.328C288.383 377.304 290.351 375.96 293.375 375.96C296.303 375.96 299.135 377.832 299.183 383.784L299.231 394.008C299.231 398.232 298.703 398.568 296.735 398.568C296.351 398.568 296.351 399 296.735 399C298.127 399 300.095 398.904 300.815 398.904C301.583 398.904 304.703 399 305.087 399C305.471 399 305.471 398.568 305.087 398.568C303.455 398.616 302.783 398.52 302.783 394.296V384.264ZM71.1004 453.528C69.3244 453.528 68.4124 452.136 66.6844 452.136C65.1484 452.136 64.0444 453.576 64.0444 454.344C64.0444 455.208 65.4364 456.216 68.0284 456.216C72.6844 456.216 75.6124 453.528 78.0604 447.912L85.7404 430.632C87.7564 426.024 89.6764 423.384 91.9324 423.432C92.2684 423.432 92.2684 423 91.9324 423C91.5484 423 88.3324 423.096 87.6124 423.096C86.9404 423.096 84.4444 423 83.1004 423C82.7164 423 82.7164 423.432 83.1004 423.432C86.1724 423.432 87.3244 425.736 85.3084 430.344L79.9324 442.44L73.5484 428.28C71.5804 424.008 71.9644 423.432 74.7484 423.432C75.1324 423.432 75.1324 423 74.7484 423C73.4524 423 70.2844 423.096 69.6124 423.096C68.8924 423.096 65.2444 423 64.8604 423C64.5244 423 64.5244 423.432 64.8604 423.432C67.1644 423.384 67.7884 423.864 70.4764 429.72L78.1084 446.616L77.5804 447.816C75.3724 452.808 73.5004 453.528 71.1004 453.528ZM102.976 447.48C110.224 447.48 115.552 440.856 115.552 434.664C115.552 427.272 110.512 422.52 103.744 422.52C96.3518 422.52 91.0718 428.568 91.0718 435.48C91.0718 442.728 96.2078 447.48 102.976 447.48ZM103.792 446.952C98.2238 446.952 95.0558 440.568 95.0558 434.664C95.0558 427.656 97.5518 423 103.168 423C108.448 423 111.664 429.432 111.664 435.432C111.664 442.536 108.88 446.952 103.792 446.952ZM120.45 437.736C120.45 445.272 123.858 447.48 128.178 447.48C131.826 447.48 134.61 445.512 137.058 442.248C137.01 444.936 136.578 446.76 136.578 447.048C136.578 447.336 136.578 447.528 136.962 447.48C138.306 447.336 140.226 447 143.202 447C143.49 447 143.49 446.568 143.202 446.568C140.85 446.568 140.658 446.136 140.658 441.288V423.048C140.658 422.808 139.938 422.616 139.794 422.712C138.162 423.624 136.386 424.44 133.986 424.872C133.602 424.92 133.602 425.352 133.986 425.304C136.386 424.872 137.058 424.776 137.058 428.904V441.672C134.754 444.744 132.786 446.04 129.762 446.04C126.834 446.04 124.098 444.168 124.098 438.216V423.048C124.098 422.808 123.378 422.616 123.234 422.712C121.602 423.624 119.778 424.44 117.378 424.872C116.994 424.92 116.994 425.352 117.378 425.304C119.778 424.872 120.45 424.776 120.45 428.904V437.736ZM154.367 423.336C153.071 424.2 151.775 425.304 151.199 427.416C151.007 425.544 149.951 423.768 149.135 423C148.991 422.856 148.943 422.856 148.847 422.952C148.031 423.768 146.399 424.632 145.535 424.968C145.439 425.016 145.391 425.112 145.535 425.256C146.639 426.264 147.743 427.512 147.743 428.904V441.288C147.743 446.28 147.407 446.568 145.055 446.568C144.671 446.568 144.671 447 145.055 447C146.447 447 149.231 446.904 149.951 446.904C150.719 446.904 153.839 447 154.223 447C154.607 447 154.607 446.568 154.223 446.568H151.295V430.488C151.295 426.36 151.631 425.88 155.087 425.88H156.863C158.543 425.88 159.263 424.152 159.263 423.384C159.263 422.76 158.255 422.52 157.103 422.52C156.143 422.52 155.183 422.808 154.367 423.336ZM181.667 422.664C181.667 422.424 180.947 422.232 180.803 422.328C179.171 423.24 177.203 424.68 174.755 424.968C174.37 425.016 174.37 425.448 174.755 425.4C177.155 424.968 178.115 424.536 178.115 428.664V454.008C178.115 459.24 177.827 459.624 174.562 459.624C174.178 459.624 174.178 460.056 174.562 460.056C175.955 460.056 179.363 459.96 180.083 459.96C180.851 459.96 184.643 460.056 185.027 460.056C185.411 460.056 185.411 459.624 185.027 459.624H181.618V445.704C183.107 446.664 185.123 447.48 187.571 447.48C194.483 447.48 201.299 441.72 201.299 433.8C201.299 427.176 196.643 422.52 191.171 422.52C187.523 422.52 183.923 424.44 181.667 427.56V422.664ZM181.618 442.008C181.618 436.44 181.667 432.12 181.667 428.136C183.299 425.64 186.179 424.104 188.819 424.104C194.771 424.104 197.747 429.912 197.747 435.528C197.747 442.584 194.771 446.424 189.587 446.424C186.179 446.424 183.395 443.832 181.618 442.008ZM208.964 446.904C209.732 446.904 212.66 447 213.044 447C213.428 447 213.428 446.568 213.044 446.568H210.116V428.232C212.324 425.256 214.34 423.96 217.316 423.96C220.244 423.96 223.076 425.832 223.076 431.784V441.384C223.076 446.472 222.692 446.568 220.532 446.568C220.148 446.568 220.148 447 220.532 447C221.924 447 224.036 446.904 224.756 446.904C225.524 446.904 228.644 447 229.028 447C229.412 447 229.412 446.568 229.028 446.568C227.396 446.616 226.724 446.424 226.724 444.6V432.264C226.724 424.728 223.22 422.52 218.9 422.52C215.252 422.52 212.516 424.44 210.116 427.656V408.312C210.116 408.072 209.396 407.88 209.252 407.976C207.62 408.888 205.844 409.704 203.444 410.136C203.06 410.184 203.06 410.616 203.444 410.568C205.844 410.136 206.516 410.184 206.516 414.312V441.288C206.516 445.992 206.42 446.568 204.356 446.568C203.972 446.568 203.972 447 204.356 447C205.748 447 208.244 446.904 208.964 446.904ZM243.554 447.48C250.802 447.48 256.13 440.856 256.13 434.664C256.13 427.272 251.09 422.52 244.322 422.52C236.93 422.52 231.65 428.568 231.65 435.48C231.65 442.728 236.786 447.48 243.554 447.48ZM244.37 446.952C238.802 446.952 235.634 440.568 235.634 434.664C235.634 427.656 238.13 423 243.746 423C249.026 423 252.242 429.432 252.242 435.432C252.242 442.536 249.458 446.952 244.37 446.952ZM281.573 432.264C281.573 424.728 278.069 422.52 273.749 422.52C270.053 422.52 267.317 424.488 264.868 427.752C264.773 425.784 263.765 423.864 262.901 423C262.757 422.856 262.709 422.856 262.613 422.952C261.797 423.768 259.973 424.632 259.109 424.968C259.013 425.016 258.965 425.112 259.109 425.256C260.213 426.264 261.317 427.512 261.317 428.904V441.288C261.317 445.992 261.221 446.568 259.157 446.568C258.773 446.568 258.773 447 259.157 447C260.549 447 263.045 446.904 263.765 446.904C264.533 446.904 267.029 447 267.413 447C267.797 447 267.797 446.568 267.413 446.568H264.917V428.328C267.173 425.304 269.141 423.96 272.165 423.96C275.093 423.96 277.925 425.832 277.973 431.784L278.021 442.008C278.021 446.232 277.493 446.568 275.525 446.568C275.141 446.568 275.141 447 275.525 447C276.917 447 278.885 446.904 279.605 446.904C280.373 446.904 283.493 447 283.877 447C284.26 447 284.26 446.568 283.877 446.568C282.245 446.616 281.573 446.52 281.573 442.296V432.264ZM298.446 447.48C305.694 447.48 310.734 441.384 313.278 435.48C313.518 434.952 313.182 434.808 312.942 435.384C310.302 441.096 306.75 444.696 300.894 444.696C294.414 444.696 289.278 440.088 289.278 434.184C289.278 432.84 289.422 431.592 289.662 430.488H306.078C307.566 430.488 307.998 429.816 308.094 429C308.382 426.792 306.654 422.52 299.742 422.52C293.118 422.52 286.398 428.76 286.398 435.96C286.398 442.584 291.102 447.48 298.446 447.48ZM301.566 429.912C298.446 429.912 295.182 430.104 289.758 430.104C291.006 425.784 294.27 423.576 298.398 423.576C302.094 423.576 303.918 426.12 303.918 427.944C303.918 428.568 303.774 429.144 303.486 429.48C303.342 429.624 302.238 429.912 301.566 429.912Z" fill="#1A376B"/>
<g clip-path="url(#clip0)">
<path d="M213.003 310.376L197.942 325.438C196.528 326.852 194.194 326.922 192.709 325.438L162.587 295.315C161.172 293.901 161.102 291.567 162.587 290.082L177.648 275.021C179.062 273.607 181.396 273.536 182.88 275.021L213.074 305.214C214.488 306.628 214.488 308.891 213.003 310.376ZM164.001 291.496C163.364 292.133 163.294 293.193 164.001 293.901L194.194 324.094C194.831 324.73 195.891 324.801 196.598 324.094L211.66 309.033C212.296 308.396 212.367 307.336 211.66 306.628L181.466 276.435C180.83 275.799 179.769 275.728 179.062 276.435L164.001 291.496Z" fill="#1A376B"/>
<path d="M211.589 298.355L209.751 297.648C211.66 292.628 210.599 286.9 206.851 283.011C204.659 280.678 201.689 279.263 198.508 278.91L198.79 276.93C202.467 277.354 205.791 278.981 208.336 281.668C212.579 286.052 213.852 292.557 211.589 298.355Z" fill="#1A376B"/>
<path d="M190.022 277.071L198.295 281.243L199.002 276.859L190.022 277.071Z" fill="#1A376B"/>
<path d="M176.304 324.165C172.627 323.74 169.304 322.114 166.758 319.427C162.445 314.972 161.172 308.467 163.435 302.669L165.274 303.376C163.364 308.396 164.425 314.124 168.173 318.013C170.365 320.346 173.335 321.761 176.517 322.114L176.304 324.165Z" fill="#1A376B"/>
<path d="M185.073 324.023L176.799 319.851L176.092 324.235L185.073 324.023Z" fill="#1A376B"/>
</g>
<defs>
<clipPath id="clip0">
<rect width="56.1" height="50" fill="white" transform="translate(150 302.669) rotate(-45)"/>
</clipPath>
</defs>
</svg>
