<svg width="1440" height="789" viewBox="0 0 1440 789" fill="none" xmlns="http://www.w3.org/2000/svg">
<path d="M271.62 334.38C275.4 327.72 290.88 302.88 301.14 302.88H301.5C302.76 302.88 303.3 301.26 301.86 301.26C297.36 301.26 284.58 301.62 282.24 301.62C279.18 301.62 266.58 301.26 263.34 301.26C261.54 301.26 261.18 301.8 261.18 302.34C261.18 302.88 261.54 303.42 262.44 303.42C263.16 303.42 266.04 302.7 267.48 302.7C284.94 302.7 273.78 326.82 269.64 333.84L250.56 366.78L233.46 335.28C219.96 310.62 216.9 302.88 225.9 302.88H229.68C231.12 302.88 230.58 301.26 229.14 301.26C223.92 301.26 210.06 301.8 207.36 301.8C204.66 301.8 194.76 301.26 189.54 301.26C188.82 301.26 188.46 301.62 188.46 302.16C188.46 302.52 188.82 302.88 189.72 302.88H191.16C200.34 302.88 205.02 309.36 218.88 334.38L238.32 369.48V379.38C238.32 423.66 237.42 424.38 228.6 424.38H225.36C223.92 424.38 223.92 426 225.36 426C230.4 426 242.64 425.46 245.16 425.46C247.86 425.46 259.74 426 264.78 426C266.22 426 266.22 424.38 264.78 424.38H261.54C252.72 424.38 251.82 423.66 251.82 379.38V368.94L271.62 334.38ZM326.604 427.8C353.784 427.8 373.764 402.96 373.764 379.74C373.764 352.02 354.864 334.2 329.484 334.2C301.764 334.2 281.964 356.88 281.964 382.8C281.964 409.98 301.224 427.8 326.604 427.8ZM329.664 425.82C308.784 425.82 296.904 401.88 296.904 379.74C296.904 353.46 306.264 336 327.324 336C347.124 336 359.184 360.12 359.184 382.62C359.184 409.26 348.744 425.82 329.664 425.82ZM392.134 391.26C392.134 419.52 404.914 427.8 421.114 427.8C434.794 427.8 445.234 420.42 454.414 408.18C454.234 418.26 452.614 425.1 452.614 426.18C452.614 427.26 452.614 427.98 454.054 427.8C459.094 427.26 466.294 426 477.454 426C478.534 426 478.534 424.38 477.454 424.38C468.634 424.38 467.914 422.76 467.914 404.58V336.18C467.914 335.28 465.214 334.56 464.674 334.92C458.554 338.34 451.894 341.4 442.894 343.02C441.454 343.2 441.454 344.82 442.894 344.64C451.894 343.02 454.414 342.66 454.414 358.14V406.02C445.774 417.54 438.394 422.4 427.054 422.4C416.074 422.4 405.814 415.38 405.814 393.06V336.18C405.814 335.28 403.114 334.56 402.574 334.92C396.454 338.34 389.614 341.4 380.614 343.02C379.174 343.2 379.174 344.82 380.614 344.64C389.614 343.02 392.134 342.66 392.134 358.14V391.26ZM501.141 337.62C509.421 334.92 518.601 329.16 518.601 316.56C518.601 307.2 512.841 300.18 504.561 300.18C497.721 300.18 493.581 304.32 493.581 309.72C493.581 314.94 497.361 317.28 504.021 318.72C509.601 319.8 513.201 320.88 513.201 325.38C513.201 330.78 506.541 334.56 500.601 336.54C499.881 336.9 500.241 337.8 501.141 337.62ZM567.661 337.26C562.801 340.5 557.941 344.64 555.781 352.56C555.061 345.54 551.101 338.88 548.041 336C547.501 335.46 547.321 335.46 546.961 335.82C543.901 338.88 537.781 342.12 534.541 343.38C534.181 343.56 534.001 343.92 534.541 344.46C538.681 348.24 542.821 352.92 542.821 358.14V404.58C542.821 423.3 541.561 424.38 532.741 424.38C531.301 424.38 531.301 426 532.741 426C537.961 426 548.401 425.64 551.101 425.64C553.981 425.64 565.681 426 567.121 426C568.561 426 568.561 424.38 567.121 424.38H556.141V364.08C556.141 348.6 557.401 346.8 570.361 346.8H577.021C583.321 346.8 586.021 340.32 586.021 337.44C586.021 335.1 582.241 334.2 577.921 334.2C574.321 334.2 570.721 335.28 567.661 337.26ZM630.183 427.8C657.363 427.8 676.263 404.94 685.803 382.8C686.703 380.82 685.443 380.28 684.543 382.44C674.643 403.86 661.323 417.36 639.363 417.36C615.063 417.36 595.803 400.08 595.803 377.94C595.803 372.9 596.343 368.22 597.243 364.08H658.803C664.383 364.08 666.003 361.56 666.363 358.5C667.443 350.22 660.963 334.2 635.043 334.2C610.203 334.2 585.003 357.6 585.003 384.6C585.003 409.44 602.643 427.8 630.183 427.8ZM641.883 361.92C630.183 361.92 617.943 362.64 597.603 362.64C602.283 346.44 614.523 338.16 630.003 338.16C643.863 338.16 650.703 347.7 650.703 354.54C650.703 356.88 650.163 359.04 649.083 360.3C648.543 360.84 644.403 361.92 641.883 361.92ZM740.742 406.2C740.742 421.68 740.022 424.38 729.762 424.38C728.322 424.38 728.322 426 729.762 426C734.982 426 745.242 425.64 747.942 425.64C750.642 425.64 760.002 426 765.222 426C766.662 426 766.662 424.38 765.222 424.38C755.142 424.38 754.422 421.68 754.422 406.2V335.46C754.422 334.56 751.722 333.84 751.182 334.2C744.162 339.06 737.682 342.48 728.682 344.46C727.242 344.82 727.782 346.26 729.222 345.9C738.222 343.92 740.742 344.46 740.742 358.14V406.2ZM737.502 309.36C737.502 314.58 741.642 318.72 746.862 318.72C752.082 318.72 756.402 314.58 756.402 309.36C756.402 304.14 752.082 299.82 746.862 299.82C741.642 299.82 737.502 304.14 737.502 309.36ZM856.948 370.74C856.948 342.48 843.808 334.2 827.608 334.2C813.748 334.2 803.488 341.58 794.308 353.82C793.948 346.44 790.168 339.24 786.928 336C786.388 335.46 786.208 335.46 785.848 335.82C782.788 338.88 775.948 342.12 772.708 343.38C772.348 343.56 772.168 343.92 772.708 344.46C776.848 348.24 780.988 352.92 780.988 358.14V404.58C780.988 422.22 780.628 424.38 772.888 424.38C771.448 424.38 771.448 426 772.888 426C778.108 426 787.468 425.64 790.168 425.64C793.048 425.64 802.408 426 803.848 426C805.288 426 805.288 424.38 803.848 424.38H794.488V355.98C802.948 344.64 810.328 339.6 821.668 339.6C832.648 339.6 843.268 346.62 843.448 368.94L843.628 407.28C843.628 423.12 841.648 424.38 834.268 424.38C832.828 424.38 832.828 426 834.268 426C839.488 426 846.868 425.64 849.568 425.64C852.448 425.64 864.148 426 865.588 426C867.028 426 867.028 424.38 865.588 424.38C859.468 424.56 856.948 424.2 856.948 408.36V370.74ZM939.793 364.08C946.993 346.8 953.293 337.44 961.753 337.62C963.013 337.62 963.013 336 961.753 336C960.493 336 948.973 336.36 946.453 336.36C944.113 336.36 935.113 336.18 930.433 336.18C928.993 336.18 928.993 337.8 930.433 337.8C941.773 337.62 945.373 345.18 938.173 363L917.293 412.86L892.273 355.26C885.433 339.78 886.333 337.62 896.773 337.62C898.213 337.62 898.213 336.18 896.773 336.18C892.273 336.18 880.933 336.36 878.413 336.36C875.893 336.36 861.673 336 860.413 336C859.153 336 859.153 337.62 860.413 337.62C867.973 337.44 871.573 339.96 880.393 360.3L909.193 426.36C909.373 426.72 909.553 426.72 909.913 426.72H912.793C913.153 426.72 913.333 426.72 913.513 426.36L939.793 364.08ZM972.598 406.2C972.598 421.68 971.878 424.38 961.618 424.38C960.178 424.38 960.178 426 961.618 426C966.838 426 977.098 425.64 979.798 425.64C982.498 425.64 991.858 426 997.078 426C998.518 426 998.518 424.38 997.078 424.38C986.998 424.38 986.278 421.68 986.278 406.2V335.46C986.278 334.56 983.578 333.84 983.038 334.2C976.018 339.06 969.538 342.48 960.538 344.46C959.098 344.82 959.638 346.26 961.078 345.9C970.078 343.92 972.598 344.46 972.598 358.14V406.2ZM969.358 309.36C969.358 314.58 973.498 318.72 978.718 318.72C983.938 318.72 988.258 314.58 988.258 309.36C988.258 304.14 983.938 299.82 978.718 299.82C973.498 299.82 969.358 304.14 969.358 309.36ZM1025.62 318.72C1025.62 318 1025.26 318.18 1024.9 318.54L1001.86 345C1001.5 345.36 1001.68 345.9 1001.86 345.9H1011.76V402.96C1011.76 420.24 1016.98 427.8 1029.04 427.8C1041.46 427.8 1051.9 416.28 1057.66 404.58C1058.38 403.14 1055.86 402.06 1055.32 403.5C1051.18 415.56 1044.16 422.22 1036.96 422.22C1029.4 422.22 1025.26 415.38 1025.26 402.42V345.9C1031.38 345.9 1045.96 346.08 1047.4 346.08C1052.98 341.04 1056.22 337.44 1056.22 336.36C1056.22 336 1055.86 335.82 1049.92 336C1043.98 336.18 1031.02 336.18 1025.62 336.18V318.72ZM1101.63 427.8C1128.81 427.8 1147.71 404.94 1157.25 382.8C1158.15 380.82 1156.89 380.28 1155.99 382.44C1146.09 403.86 1132.77 417.36 1110.81 417.36C1086.51 417.36 1067.25 400.08 1067.25 377.94C1067.25 372.9 1067.79 368.22 1068.69 364.08H1130.25C1135.83 364.08 1137.45 361.56 1137.81 358.5C1138.89 350.22 1132.41 334.2 1106.49 334.2C1081.65 334.2 1056.45 357.6 1056.45 384.6C1056.45 409.44 1074.09 427.8 1101.63 427.8ZM1113.33 361.92C1101.63 361.92 1089.39 362.64 1069.05 362.64C1073.73 346.44 1085.97 338.16 1101.45 338.16C1115.31 338.16 1122.15 347.7 1122.15 354.54C1122.15 356.88 1121.61 359.04 1120.53 360.3C1119.99 360.84 1115.85 361.92 1113.33 361.92ZM1223.44 342.66C1217.86 338.34 1209.94 334.2 1200.4 334.2C1174.48 334.2 1148.74 355.8 1148.74 385.5C1148.74 410.34 1166.02 427.8 1186.54 427.8C1200.58 427.8 1214.8 420.24 1223.44 407.64C1223.26 417.9 1222.18 425.1 1222.18 426.18C1222.18 427.44 1222.9 428.16 1224.34 427.8C1230.28 426.54 1235.14 426 1246.12 426C1247.56 426 1247.56 424.38 1246.12 424.38C1237.12 424.38 1236.94 422.22 1236.94 404.58V280.92C1236.94 280.02 1233.88 279.3 1233.34 279.66C1227.22 283.08 1220.56 286.32 1211.56 287.94C1210.12 288.12 1210.12 289.74 1211.56 289.56C1220.56 287.94 1223.44 287.94 1223.44 303.42V342.66ZM1192.84 338.16C1205.98 338.16 1216.96 349.14 1223.44 355.98V404.76C1217.32 414.84 1206.7 421.86 1195.72 421.86C1173.4 421.86 1161.34 399.36 1161.34 378.3C1161.34 351.84 1173.4 338.16 1192.84 338.16Z" fill="#EADCDE"/>
<path d="M671.395 745.34C669.768 745.34 668.441 744.98 667.415 744.26C666.401 743.54 665.741 742.573 665.435 741.36L667.635 740.4C667.901 741.267 668.348 741.967 668.975 742.5C669.601 743.02 670.435 743.28 671.475 743.28C672.275 743.28 672.941 743.113 673.475 742.78C674.021 742.433 674.295 741.913 674.295 741.22C674.295 740.567 674.101 740.087 673.715 739.78C673.341 739.46 672.735 739.213 671.895 739.04L669.915 738.62C667.435 738.113 666.195 736.753 666.195 734.54C666.195 733.727 666.401 733.013 666.815 732.4C667.241 731.787 667.848 731.313 668.635 730.98C669.421 730.633 670.341 730.46 671.395 730.46C672.795 730.46 673.975 730.753 674.935 731.34C675.908 731.913 676.548 732.773 676.855 733.92L674.795 735C674.568 734.173 674.155 733.54 673.555 733.1C672.968 732.647 672.208 732.42 671.275 732.42C670.501 732.42 669.875 732.593 669.395 732.94C668.928 733.273 668.695 733.74 668.695 734.34C668.695 734.913 668.861 735.367 669.195 735.7C669.541 736.02 670.108 736.267 670.895 736.44L672.955 736.88C674.221 737.147 675.188 737.6 675.855 738.24C676.521 738.867 676.855 739.78 676.855 740.98C676.855 741.807 676.648 742.553 676.235 743.22C675.821 743.873 675.201 744.393 674.375 744.78C673.561 745.153 672.568 745.34 671.395 745.34ZM683.217 745.24C682.23 745.24 681.363 745.027 680.617 744.6C679.883 744.16 679.317 743.547 678.917 742.76C678.517 741.973 678.317 741.053 678.317 740C678.317 738.373 678.757 737.093 679.637 736.16C680.517 735.227 681.717 734.76 683.237 734.76C684.477 734.76 685.483 735.08 686.257 735.72C687.03 736.347 687.49 737.227 687.637 738.36L685.297 738.74C685.217 738.06 684.99 737.54 684.617 737.18C684.257 736.82 683.777 736.64 683.177 736.64C682.43 736.64 681.843 736.933 681.417 737.52C680.99 738.107 680.777 738.913 680.777 739.94C680.777 741.02 680.99 741.86 681.417 742.46C681.843 743.047 682.443 743.34 683.217 743.34C683.817 743.34 684.297 743.16 684.657 742.8C685.03 742.44 685.27 741.907 685.377 741.2L687.637 741.66C687.463 742.767 686.977 743.64 686.177 744.28C685.39 744.92 684.403 745.24 683.217 745.24ZM692.197 737.42C692.464 736.593 692.864 735.947 693.397 735.48C693.931 735 694.591 734.76 695.377 734.76C695.497 734.76 695.591 734.767 695.657 734.78V737.08H695.337C694.444 737.08 693.751 737.313 693.257 737.78C692.897 738.14 692.657 738.567 692.537 739.06C692.417 739.553 692.357 740.14 692.357 740.82V745H689.957V735H692.197V737.42ZM701.459 745.24C700.499 745.24 699.645 745.033 698.899 744.62C698.165 744.207 697.592 743.607 697.179 742.82C696.765 742.02 696.559 741.073 696.559 739.98C696.559 738.887 696.765 737.947 697.179 737.16C697.592 736.373 698.165 735.78 698.899 735.38C699.645 734.967 700.499 734.76 701.459 734.76C702.419 734.76 703.265 734.967 703.999 735.38C704.745 735.78 705.325 736.373 705.739 737.16C706.152 737.947 706.359 738.887 706.359 739.98C706.359 741.073 706.152 742.02 705.739 742.82C705.325 743.607 704.745 744.207 703.999 744.62C703.265 745.033 702.419 745.24 701.459 745.24ZM701.459 743.42C702.232 743.42 702.832 743.133 703.259 742.56C703.685 741.973 703.899 741.113 703.899 739.98C703.899 738.86 703.685 738.013 703.259 737.44C702.845 736.867 702.245 736.58 701.459 736.58C700.672 736.58 700.065 736.867 699.639 737.44C699.212 738.013 698.999 738.86 698.999 739.98C698.999 741.1 699.212 741.953 699.639 742.54C700.065 743.127 700.672 743.42 701.459 743.42ZM711.227 730.5V745H708.827V730.5H711.227ZM717.008 730.5V745H714.608V730.5H717.008ZM728.588 745.24C727.788 745.24 727.081 745.027 726.468 744.6C725.854 744.16 725.381 743.547 725.048 742.76C724.714 741.96 724.548 741.047 724.548 740.02C724.548 738.993 724.721 738.08 725.068 737.28C725.428 736.48 725.928 735.86 726.568 735.42C727.208 734.98 727.941 734.76 728.768 734.76C730.114 734.76 731.074 735.313 731.648 736.42V730.5H734.048V745H731.788V743.2C731.508 743.84 731.088 744.34 730.528 744.7C729.981 745.06 729.334 745.24 728.588 745.24ZM729.408 743.4C730.114 743.4 730.674 743.127 731.088 742.58C731.501 742.02 731.708 741.273 731.708 740.34V739.7C731.708 738.727 731.501 737.967 731.088 737.42C730.674 736.873 730.108 736.6 729.388 736.6C728.654 736.6 728.081 736.9 727.668 737.5C727.254 738.087 727.048 738.913 727.048 739.98C727.048 741.047 727.254 741.887 727.668 742.5C728.094 743.1 728.674 743.4 729.408 743.4ZM741.4 745.24C740.44 745.24 739.587 745.033 738.84 744.62C738.107 744.207 737.534 743.607 737.12 742.82C736.707 742.02 736.5 741.073 736.5 739.98C736.5 738.887 736.707 737.947 737.12 737.16C737.534 736.373 738.107 735.78 738.84 735.38C739.587 734.967 740.44 734.76 741.4 734.76C742.36 734.76 743.207 734.967 743.94 735.38C744.687 735.78 745.267 736.373 745.68 737.16C746.094 737.947 746.3 738.887 746.3 739.98C746.3 741.073 746.094 742.02 745.68 742.82C745.267 743.607 744.687 744.207 743.94 744.62C743.207 745.033 742.36 745.24 741.4 745.24ZM741.4 743.42C742.174 743.42 742.774 743.133 743.2 742.56C743.627 741.973 743.84 741.113 743.84 739.98C743.84 738.86 743.627 738.013 743.2 737.44C742.787 736.867 742.187 736.58 741.4 736.58C740.614 736.58 740.007 736.867 739.58 737.44C739.154 738.013 738.94 738.86 738.94 739.98C738.94 741.1 739.154 741.953 739.58 742.54C740.007 743.127 740.614 743.42 741.4 743.42ZM747.371 735H749.731L751.271 741.66C751.378 742.193 751.438 742.553 751.451 742.74H751.491C751.545 742.38 751.618 742.02 751.711 741.66L753.351 735H755.611L757.271 741.66C757.285 741.767 757.318 741.933 757.371 742.16C757.425 742.373 757.458 742.567 757.471 742.74H757.511L757.691 741.66L759.251 735H761.611L758.851 745H756.411L754.691 738.4C754.598 738.027 754.538 737.7 754.511 737.42H754.471L754.291 738.4L752.551 745H750.111L747.371 735ZM763.61 735H765.89V736.94C766.57 735.473 767.676 734.74 769.21 734.74C770.303 734.74 771.13 735.087 771.69 735.78C772.25 736.46 772.53 737.467 772.53 738.8V745H770.11V739.04C770.11 737.467 769.49 736.68 768.25 736.68C767.543 736.68 766.99 736.947 766.59 737.48C766.203 738.013 766.01 738.753 766.01 739.7V745H763.61V735Z" fill="#EADCDE"/>
</svg>
