<svg width="1440" height="798" viewBox="0 0 1440 798" fill="none" xmlns="http://www.w3.org/2000/svg">
<rect width="1440" height="798" fill="#E5E5E5"/>
<g clip-path="url(#clip0)">
<rect width="1440" height="2865" fill="white"/>
<rect width="1440" height="1000" fill="#EADCDE"/>
<rect y="750" width="1440" height="150" fill="url(#paint0_linear)"/>
<rect y="-2" width="1440" height="800" fill="#1A376B"/>
<rect width="1440" height="800" transform="translate(0 -2)" fill="#1A376B"/>
<path d="M157.16 378.815C160.94 372.155 176.42 347.315 186.68 347.315H187.04C188.3 347.315 188.84 345.695 187.4 345.695C182.9 345.695 170.12 346.055 167.78 346.055C164.72 346.055 152.12 345.695 148.88 345.695C147.08 345.695 146.72 346.235 146.72 346.775C146.72 347.315 147.08 347.855 147.98 347.855C148.7 347.855 151.58 347.135 153.02 347.135C170.48 347.135 159.32 371.255 155.18 378.275L136.1 411.215L119 379.715C105.5 355.055 102.44 347.315 111.44 347.315H115.22C116.66 347.315 116.12 345.695 114.68 345.695C109.46 345.695 95.6 346.235 92.9 346.235C90.2 346.235 80.3 345.695 75.08 345.695C74.36 345.695 74 346.055 74 346.595C74 346.955 74.36 347.315 75.26 347.315H76.7C85.88 347.315 90.56 353.795 104.42 378.815L123.86 413.915V423.815C123.86 468.095 122.96 468.815 114.14 468.815H110.9C109.46 468.815 109.46 470.435 110.9 470.435C115.94 470.435 128.18 469.895 130.7 469.895C133.4 469.895 145.28 470.435 150.32 470.435C151.76 470.435 151.76 468.815 150.32 468.815H147.08C138.26 468.815 137.36 468.095 137.36 423.815V413.375L157.16 378.815Z" fill="#EADCDE"/>
<path d="M212.144 472.235C239.324 472.235 259.304 447.395 259.304 424.175C259.304 396.455 240.404 378.635 215.024 378.635C187.304 378.635 167.504 401.315 167.504 427.235C167.504 454.415 186.764 472.235 212.144 472.235ZM215.204 470.255C194.324 470.255 182.444 446.315 182.444 424.175C182.444 397.895 191.804 380.435 212.864 380.435C232.664 380.435 244.724 404.555 244.724 427.055C244.724 453.695 234.284 470.255 215.204 470.255Z" fill="#EADCDE"/>
<path d="M277.674 435.695C277.674 463.955 290.454 472.235 306.654 472.235C320.334 472.235 330.774 464.855 339.954 452.615C339.774 462.695 338.154 469.535 338.154 470.615C338.154 471.695 338.154 472.415 339.594 472.235C344.634 471.695 351.834 470.435 362.994 470.435C364.074 470.435 364.074 468.815 362.994 468.815C354.174 468.815 353.454 467.195 353.454 449.015V380.615C353.454 379.715 350.754 378.995 350.214 379.355C344.094 382.775 337.434 385.835 328.434 387.455C326.994 387.635 326.994 389.255 328.434 389.075C337.434 387.455 339.954 387.095 339.954 402.575V450.455C331.314 461.975 323.934 466.835 312.594 466.835C301.614 466.835 291.354 459.815 291.354 437.495V380.615C291.354 379.715 288.654 378.995 288.114 379.355C281.994 382.775 275.154 385.835 266.154 387.455C264.714 387.635 264.714 389.255 266.154 389.075C275.154 387.455 277.674 387.095 277.674 402.575V435.695Z" fill="#EADCDE"/>
<path d="M502.62 472.415C515.22 472.415 534.12 452.975 538.98 444.695C538.62 448.475 538.26 454.775 538.26 459.455C538.26 467.555 541.68 472.235 548.52 472.235C555.54 472.235 566.88 461.795 569.76 457.655C570.66 456.215 568.5 454.775 567.6 456.215C565.62 459.815 561.12 466.115 557.88 466.115C554.1 466.115 552.84 461.075 552.84 450.815C552.84 443.795 554.28 423.455 554.28 411.395C554.28 387.815 541.5 378.635 523.86 378.635C511.08 378.635 495.96 386.195 488.76 390.875C484.26 393.755 482.46 397.175 482.46 399.335C482.46 401.855 485.34 403.475 489.66 403.475C494.52 403.475 496.14 402.575 497.76 400.235C501.72 394.475 505.14 380.255 520.98 380.255C533.76 380.255 539.52 387.095 540.24 409.595L525.3 415.355C492 428.315 480.3 440.195 480.3 452.255C480.3 463.235 488.22 472.415 502.62 472.415ZM492.9 447.035C492.9 433.715 499.2 428.315 525.66 417.155L540.42 410.855V414.635C540.42 429.395 539.52 438.215 539.34 440.555C537.72 446.495 521.7 464.495 511.62 464.495C502.8 464.495 492.9 456.755 492.9 447.035Z" fill="#EADCDE"/>
<path d="M605.701 381.695C600.841 384.935 595.981 389.075 593.821 396.995C593.101 389.975 589.141 383.315 586.081 380.435C585.541 379.895 585.361 379.895 585.001 380.255C581.941 383.315 575.821 386.555 572.581 387.815C572.221 387.995 572.041 388.355 572.581 388.895C576.721 392.675 580.861 397.355 580.861 402.575V449.015C580.861 467.735 579.601 468.815 570.781 468.815C569.341 468.815 569.341 470.435 570.781 470.435C576.001 470.435 586.441 470.075 589.141 470.075C592.021 470.075 603.721 470.435 605.161 470.435C606.601 470.435 606.601 468.815 605.161 468.815H594.181V408.515C594.181 393.035 595.441 391.235 608.401 391.235H615.061C621.361 391.235 624.061 384.755 624.061 381.875C624.061 379.535 620.281 378.635 615.961 378.635C612.361 378.635 608.761 379.715 605.701 381.695Z" fill="#EADCDE"/>
<path d="M668.223 472.235C695.403 472.235 714.303 449.375 723.843 427.235C724.743 425.255 723.483 424.715 722.583 426.875C712.683 448.295 699.363 461.795 677.403 461.795C653.103 461.795 633.843 444.515 633.843 422.375C633.843 417.335 634.383 412.655 635.283 408.515H696.843C702.423 408.515 704.043 405.995 704.403 402.935C705.483 394.655 699.003 378.635 673.083 378.635C648.243 378.635 623.043 402.035 623.043 429.035C623.043 453.875 640.683 472.235 668.223 472.235ZM679.923 406.355C668.223 406.355 655.983 407.075 635.643 407.075C640.323 390.875 652.563 382.595 668.043 382.595C681.903 382.595 688.743 392.135 688.743 398.975C688.743 401.315 688.203 403.475 687.123 404.735C686.583 405.275 682.443 406.355 679.923 406.355Z" fill="#EADCDE"/>
<path d="M860.04 450.635C860.04 466.115 859.32 468.815 849.06 468.815C847.62 468.815 847.62 470.435 849.06 470.435C854.28 470.435 864.54 470.075 867.24 470.075C869.94 470.075 879.3 470.435 884.52 470.435C885.96 470.435 885.96 468.815 884.52 468.815C874.44 468.815 873.72 466.115 873.72 450.635V379.895C873.72 378.995 871.02 378.275 870.48 378.635C863.46 383.495 856.98 386.915 847.98 388.895C846.54 389.255 847.08 390.695 848.52 390.335C857.52 388.355 860.04 388.895 860.04 402.575V450.635ZM856.8 353.795C856.8 359.015 860.94 363.155 866.16 363.155C871.38 363.155 875.7 359.015 875.7 353.795C875.7 348.575 871.38 344.255 866.16 344.255C860.94 344.255 856.8 348.575 856.8 353.795Z" fill="#EADCDE"/>
<path d="M976.245 415.175C976.245 386.915 963.105 378.635 946.905 378.635C933.045 378.635 922.785 386.015 913.605 398.255C913.245 390.875 909.465 383.675 906.225 380.435C905.685 379.895 905.505 379.895 905.145 380.255C902.085 383.315 895.245 386.555 892.005 387.815C891.645 387.995 891.465 388.355 892.005 388.895C896.145 392.675 900.285 397.355 900.285 402.575V449.015C900.285 466.655 899.925 468.815 892.185 468.815C890.745 468.815 890.745 470.435 892.185 470.435C897.405 470.435 906.765 470.075 909.465 470.075C912.345 470.075 921.705 470.435 923.145 470.435C924.585 470.435 924.585 468.815 923.145 468.815H913.785V400.415C922.245 389.075 929.625 384.035 940.965 384.035C951.945 384.035 962.565 391.055 962.745 413.375L962.925 451.715C962.925 467.555 960.945 468.815 953.565 468.815C952.125 468.815 952.125 470.435 953.565 470.435C958.785 470.435 966.165 470.075 968.865 470.075C971.745 470.075 983.445 470.435 984.885 470.435C986.325 470.435 986.325 468.815 984.885 468.815C978.765 468.995 976.245 468.635 976.245 452.795V415.175Z" fill="#EADCDE"/>
<path d="M1059.09 408.515C1066.29 391.235 1072.59 381.875 1081.05 382.055C1082.31 382.055 1082.31 380.435 1081.05 380.435C1079.79 380.435 1068.27 380.795 1065.75 380.795C1063.41 380.795 1054.41 380.615 1049.73 380.615C1048.29 380.615 1048.29 382.235 1049.73 382.235C1061.07 382.055 1064.67 389.615 1057.47 407.435L1036.59 457.295L1011.57 399.695C1004.73 384.215 1005.63 382.055 1016.07 382.055C1017.51 382.055 1017.51 380.615 1016.07 380.615C1011.57 380.615 1000.23 380.795 997.71 380.795C995.19 380.795 980.97 380.435 979.71 380.435C978.45 380.435 978.45 382.055 979.71 382.055C987.27 381.875 990.87 384.395 999.69 404.735L1028.49 470.795C1028.67 471.155 1028.85 471.155 1029.21 471.155H1032.09C1032.45 471.155 1032.63 471.155 1032.81 470.795L1059.09 408.515Z" fill="#EADCDE"/>
<path d="M1091.9 450.635C1091.9 466.115 1091.18 468.815 1080.92 468.815C1079.48 468.815 1079.48 470.435 1080.92 470.435C1086.14 470.435 1096.4 470.075 1099.1 470.075C1101.8 470.075 1111.16 470.435 1116.38 470.435C1117.82 470.435 1117.82 468.815 1116.38 468.815C1106.3 468.815 1105.58 466.115 1105.58 450.635V379.895C1105.58 378.995 1102.88 378.275 1102.34 378.635C1095.32 383.495 1088.84 386.915 1079.84 388.895C1078.4 389.255 1078.94 390.695 1080.38 390.335C1089.38 388.355 1091.9 388.895 1091.9 402.575V450.635ZM1088.66 353.795C1088.66 359.015 1092.8 363.155 1098.02 363.155C1103.24 363.155 1107.56 359.015 1107.56 353.795C1107.56 348.575 1103.24 344.255 1098.02 344.255C1092.8 344.255 1088.66 348.575 1088.66 353.795Z" fill="#EADCDE"/>
<path d="M1144.92 363.155C1144.92 362.435 1144.56 362.615 1144.2 362.975L1121.16 389.435C1120.8 389.795 1120.98 390.335 1121.16 390.335H1131.06V447.395C1131.06 464.675 1136.28 472.235 1148.34 472.235C1160.76 472.235 1171.2 460.715 1176.96 449.015C1177.68 447.575 1175.16 446.495 1174.62 447.935C1170.48 459.995 1163.46 466.655 1156.26 466.655C1148.7 466.655 1144.56 459.815 1144.56 446.855V390.335C1150.68 390.335 1165.26 390.515 1166.7 390.515C1172.28 385.475 1175.52 381.875 1175.52 380.795C1175.52 380.435 1175.16 380.255 1169.22 380.435C1163.28 380.615 1150.32 380.615 1144.92 380.615V363.155Z" fill="#EADCDE"/>
<path d="M1220.93 472.235C1248.11 472.235 1267.01 449.375 1276.55 427.235C1277.45 425.255 1276.19 424.715 1275.29 426.875C1265.39 448.295 1252.07 461.795 1230.11 461.795C1205.81 461.795 1186.55 444.515 1186.55 422.375C1186.55 417.335 1187.09 412.655 1187.99 408.515H1249.55C1255.13 408.515 1256.75 405.995 1257.11 402.935C1258.19 394.655 1251.71 378.635 1225.79 378.635C1200.95 378.635 1175.75 402.035 1175.75 429.035C1175.75 453.875 1193.39 472.235 1220.93 472.235ZM1232.63 406.355C1220.93 406.355 1208.69 407.075 1188.35 407.075C1193.03 390.875 1205.27 382.595 1220.75 382.595C1234.61 382.595 1241.45 392.135 1241.45 398.975C1241.45 401.315 1240.91 403.475 1239.83 404.735C1239.29 405.275 1235.15 406.355 1232.63 406.355Z" fill="#EADCDE"/>
<path d="M1342.74 387.095C1337.16 382.775 1329.24 378.635 1319.7 378.635C1293.78 378.635 1268.04 400.235 1268.04 429.935C1268.04 454.775 1285.32 472.235 1305.84 472.235C1319.88 472.235 1334.1 464.675 1342.74 452.075C1342.56 462.335 1341.48 469.535 1341.48 470.615C1341.48 471.875 1342.2 472.595 1343.64 472.235C1349.58 470.975 1354.44 470.435 1365.42 470.435C1366.86 470.435 1366.86 468.815 1365.42 468.815C1356.42 468.815 1356.24 466.655 1356.24 449.015V325.355C1356.24 324.455 1353.18 323.735 1352.64 324.095C1346.52 327.515 1339.86 330.755 1330.86 332.375C1329.42 332.555 1329.42 334.175 1330.86 333.995C1339.86 332.375 1342.74 332.375 1342.74 347.855V387.095ZM1312.14 382.595C1325.28 382.595 1336.26 393.575 1342.74 400.415V449.195C1336.62 459.275 1326 466.295 1315.02 466.295C1292.7 466.295 1280.64 443.795 1280.64 422.735C1280.64 396.275 1292.7 382.595 1312.14 382.595Z" fill="#EADCDE"/>
</g>
<defs>
<linearGradient id="paint0_linear" x1="720" y1="750" x2="720" y2="900" gradientUnits="userSpaceOnUse">
<stop stop-color="#1A376B" stop-opacity="0"/>
<stop offset="1" stop-color="#1A376B"/>
</linearGradient>
<clipPath id="clip0">
<rect width="1440" height="2865" fill="white"/>
</clipPath>
</defs>
</svg>
