<svg width="1440" height="800" viewBox="0 0 1440 800" fill="none" xmlns="http://www.w3.org/2000/svg">
<rect width="1440" height="800" fill="#E5E5E5"/>
<rect width="1440" height="2865" fill="white"/>
<rect width="1440" height="800" fill="#1A376B"/>
<rect width="1440" height="800" fill="#1A376B"/>
<path d="M106.2 410.155C106.2 373.075 126.9 347.695 159.3 347.695C187.2 347.695 201.42 364.435 204.3 393.055H205.92L203.76 353.815C194.04 349.495 174.06 345.895 158.94 345.895C121.86 345.895 90 372.535 90 410.155C90 447.055 119.52 474.235 158.22 474.235C177.66 474.235 194.4 470.635 204.12 466.315L206.28 424.375H204.84C201.96 453.355 187.92 472.435 157.86 472.435C125.1 472.435 106.2 447.055 106.2 410.155Z" fill="#EADCDE"/>
<path d="M268.556 474.235C295.736 474.235 315.716 449.395 315.716 426.175C315.716 398.455 296.816 380.635 271.436 380.635C243.716 380.635 223.916 403.315 223.916 429.235C223.916 456.415 243.176 474.235 268.556 474.235ZM271.616 472.255C250.736 472.255 238.856 448.315 238.856 426.175C238.856 399.895 248.216 382.435 269.276 382.435C289.076 382.435 301.136 406.555 301.136 429.055C301.136 455.695 290.696 472.255 271.616 472.255Z" fill="#EADCDE"/>
<path d="M322.706 472.435C327.926 472.435 337.646 472.075 340.346 472.075C343.226 472.075 353.666 472.435 355.106 472.435C356.546 472.435 356.546 470.815 355.106 470.815H344.486V402.415C352.586 391.075 359.066 386.035 370.406 386.035C381.386 386.035 390.926 393.055 390.926 415.375V451.375C390.926 470.455 391.106 470.815 379.946 470.815C378.506 470.815 378.506 472.435 379.946 472.435C385.166 472.435 395.246 472.075 397.946 472.075C400.826 472.075 413.786 472.435 415.226 472.435C416.666 472.435 416.666 470.815 415.226 470.815C406.406 470.995 404.426 470.275 404.426 463.435V402.775C411.086 393.595 417.026 386.035 430.346 386.035C441.326 386.035 452.846 393.055 452.846 415.375V451.375C452.846 470.455 452.666 470.815 440.426 470.815C438.986 470.815 438.986 472.435 440.426 472.435C445.646 472.435 456.266 472.075 458.966 472.075C461.846 472.075 474.086 472.435 475.526 472.435C476.966 472.435 476.966 470.815 475.526 470.815C466.706 470.995 466.346 470.275 466.346 463.435V417.175C466.346 388.915 451.946 380.635 436.286 380.635C422.246 380.635 412.886 388.375 403.706 400.975C398.846 385.135 387.146 380.635 376.346 380.635C362.486 380.635 353.126 388.015 344.306 400.435C344.126 392.875 340.346 385.675 337.106 382.435C336.566 381.895 336.386 381.895 336.026 382.255C332.966 385.315 326.126 388.555 322.886 389.815C322.526 389.995 322.346 390.355 322.886 390.895C327.026 394.675 331.166 399.355 331.166 404.575V451.015C331.166 470.275 330.806 470.815 322.706 470.815C321.266 470.815 321.266 472.435 322.706 472.435Z" fill="#EADCDE"/>
<path d="M525.638 474.235C552.818 474.235 571.718 451.375 581.258 429.235C582.158 427.255 580.898 426.715 579.998 428.875C570.098 450.295 556.778 463.795 534.818 463.795C510.518 463.795 491.258 446.515 491.258 424.375C491.258 419.335 491.798 414.655 492.698 410.515H554.258C559.838 410.515 561.458 407.995 561.818 404.935C562.898 396.655 556.418 380.635 530.498 380.635C505.658 380.635 480.458 404.035 480.458 431.035C480.458 455.875 498.098 474.235 525.638 474.235ZM537.338 408.355C525.638 408.355 513.398 409.075 493.058 409.075C497.738 392.875 509.978 384.595 525.458 384.595C539.318 384.595 546.158 394.135 546.158 400.975C546.158 403.315 545.618 405.475 544.538 406.735C543.998 407.275 539.858 408.355 537.338 408.355Z" fill="#EADCDE"/>
<path d="M680.557 474.235C696.757 474.235 712.418 463.795 722.318 444.895C722.498 444.535 722.678 443.815 722.138 443.635C721.598 443.455 721.237 443.815 720.878 444.535C713.138 459.655 700.538 464.155 688.838 464.155C665.978 464.155 649.057 446.695 649.057 422.935C649.057 398.455 663.278 384.595 681.098 384.595C698.558 384.595 702.338 401.515 709.898 401.515C715.658 401.515 718.718 397.195 718.718 394.135C718.718 387.835 706.298 380.635 688.658 380.635C662.378 380.635 637.357 405.115 637.357 431.035C637.357 456.415 655.177 474.235 680.557 474.235Z" fill="#EADCDE"/>
<path d="M773.04 474.235C800.22 474.235 819.12 451.375 828.66 429.235C829.56 427.255 828.3 426.715 827.4 428.875C817.5 450.295 804.18 463.795 782.22 463.795C757.92 463.795 738.66 446.515 738.66 424.375C738.66 419.335 739.2 414.655 740.1 410.515H801.66C807.24 410.515 808.86 407.995 809.22 404.935C810.3 396.655 803.82 380.635 777.9 380.635C753.06 380.635 727.86 404.035 727.86 431.035C727.86 455.875 745.5 474.235 773.04 474.235ZM784.74 408.355C773.04 408.355 760.8 409.075 740.46 409.075C745.14 392.875 757.38 384.595 772.86 384.595C786.72 384.595 793.56 394.135 793.56 400.975C793.56 403.315 793.02 405.475 791.94 406.735C791.4 407.275 787.26 408.355 784.74 408.355Z" fill="#EADCDE"/>
<path d="M835.454 472.075C838.154 472.075 845.174 472.435 850.394 472.435C851.834 472.435 851.834 470.815 850.394 470.815C840.494 470.815 839.774 469.735 839.774 451.015V327.355C839.774 326.455 837.074 325.735 836.534 326.095C830.414 329.515 823.754 332.575 814.754 334.195C813.314 334.375 813.314 335.995 814.754 335.815C823.754 334.195 826.274 334.375 826.274 349.855V451.015C826.274 468.655 825.914 470.815 818.174 470.815C816.734 470.815 816.734 472.435 818.174 472.435C823.394 472.435 832.754 472.075 835.454 472.075Z" fill="#EADCDE"/>
<path d="M903.997 474.235C931.177 474.235 950.077 451.375 959.617 429.235C960.517 427.255 959.257 426.715 958.357 428.875C948.457 450.295 935.137 463.795 913.177 463.795C888.877 463.795 869.617 446.515 869.617 424.375C869.617 419.335 870.157 414.655 871.057 410.515H932.617C938.197 410.515 939.817 407.995 940.177 404.935C941.257 396.655 934.777 380.635 908.857 380.635C884.017 380.635 858.818 404.035 858.818 431.035C858.818 455.875 876.457 474.235 903.997 474.235ZM915.698 408.355C903.998 408.355 891.757 409.075 871.417 409.075C876.097 392.875 888.338 384.595 903.818 384.595C917.678 384.595 924.518 394.135 924.518 400.975C924.518 403.315 923.978 405.475 922.898 406.735C922.358 407.275 918.218 408.355 915.698 408.355Z" fill="#EADCDE"/>
<path d="M957.57 470.995C957.57 472.075 957.93 472.615 958.47 472.615C959.37 472.615 960.45 471.355 966.21 463.435C971.61 468.475 980.97 474.235 993.57 474.235C1019.49 474.235 1045.05 452.635 1045.05 422.935C1045.05 398.095 1027.59 380.635 1007.07 380.635C993.21 380.635 979.53 388.015 971.07 400.075V327.355C971.07 326.455 968.37 325.735 967.83 326.095C961.71 329.515 955.05 334.375 946.05 335.995C944.61 336.175 944.61 337.795 946.05 337.615C955.05 335.995 957.57 334.375 957.57 349.855V470.995ZM1001.13 470.275C988.17 470.275 977.55 460.375 971.07 453.355V402.055C977.19 392.515 988.17 386.575 998.25 386.575C1020.57 386.575 1031.73 408.355 1031.73 429.415C1031.73 455.875 1020.57 470.275 1001.13 470.275Z" fill="#EADCDE"/>
<path d="M1086.38 383.695C1081.52 386.935 1076.66 391.075 1074.5 398.995C1073.78 391.975 1069.82 385.315 1066.76 382.435C1066.22 381.895 1066.04 381.895 1065.68 382.255C1062.62 385.315 1056.5 388.555 1053.26 389.815C1052.9 389.995 1052.72 390.355 1053.26 390.895C1057.4 394.675 1061.54 399.355 1061.54 404.575V451.015C1061.54 469.735 1060.28 470.815 1051.46 470.815C1050.02 470.815 1050.02 472.435 1051.46 472.435C1056.68 472.435 1067.12 472.075 1069.82 472.075C1072.7 472.075 1084.4 472.435 1085.84 472.435C1087.28 472.435 1087.28 470.815 1085.84 470.815H1074.86V410.515C1074.86 395.035 1076.12 393.235 1089.08 393.235H1095.74C1102.04 393.235 1104.74 386.755 1104.74 383.875C1104.74 381.535 1100.96 380.635 1096.64 380.635C1093.04 380.635 1089.44 381.715 1086.38 383.695Z" fill="#EADCDE"/>
<path d="M1130.08 474.415C1142.68 474.415 1161.58 454.975 1166.44 446.695C1166.08 450.475 1165.72 456.775 1165.72 461.455C1165.72 469.555 1169.14 474.235 1175.98 474.235C1183 474.235 1194.34 463.795 1197.22 459.655C1198.12 458.215 1195.96 456.775 1195.06 458.215C1193.08 461.815 1188.58 468.115 1185.34 468.115C1181.56 468.115 1180.3 463.075 1180.3 452.815C1180.3 445.795 1181.74 425.455 1181.74 413.395C1181.74 389.815 1168.96 380.635 1151.32 380.635C1138.54 380.635 1123.42 388.195 1116.22 392.875C1111.72 395.755 1109.92 399.175 1109.92 401.335C1109.92 403.855 1112.8 405.475 1117.12 405.475C1121.98 405.475 1123.6 404.575 1125.22 402.235C1129.18 396.475 1132.6 382.255 1148.44 382.255C1161.22 382.255 1166.98 389.095 1167.7 411.595L1152.76 417.355C1119.46 430.315 1107.76 442.195 1107.76 454.255C1107.76 465.235 1115.68 474.415 1130.08 474.415ZM1120.36 449.035C1120.36 435.715 1126.66 430.315 1153.12 419.155L1167.88 412.855V416.635C1167.88 431.395 1166.98 440.215 1166.8 442.555C1165.18 448.495 1149.16 466.495 1139.08 466.495C1130.26 466.495 1120.36 458.755 1120.36 449.035Z" fill="#EADCDE"/>
<path d="M1218.97 365.155C1218.97 364.435 1218.61 364.615 1218.25 364.975L1195.21 391.435C1194.85 391.795 1195.03 392.335 1195.21 392.335H1205.11V449.395C1205.11 466.675 1210.33 474.235 1222.39 474.235C1234.81 474.235 1245.25 462.715 1251.01 451.015C1251.73 449.575 1249.21 448.495 1248.67 449.935C1244.53 461.995 1237.51 468.655 1230.31 468.655C1222.75 468.655 1218.61 461.815 1218.61 448.855V392.335C1224.73 392.335 1239.31 392.515 1240.75 392.515C1246.33 387.475 1249.57 383.875 1249.57 382.795C1249.57 382.435 1249.21 382.255 1243.27 382.435C1237.33 382.615 1224.37 382.615 1218.97 382.615V365.155Z" fill="#EADCDE"/>
<path d="M1294.98 474.235C1322.16 474.235 1341.06 451.375 1350.6 429.235C1351.5 427.255 1350.24 426.715 1349.34 428.875C1339.44 450.295 1326.12 463.795 1304.16 463.795C1279.86 463.795 1260.6 446.515 1260.6 424.375C1260.6 419.335 1261.14 414.655 1262.04 410.515H1323.6C1329.18 410.515 1330.8 407.995 1331.16 404.935C1332.24 396.655 1325.76 380.635 1299.84 380.635C1275 380.635 1249.8 404.035 1249.8 431.035C1249.8 455.875 1267.44 474.235 1294.98 474.235ZM1306.68 408.355C1294.98 408.355 1282.74 409.075 1262.4 409.075C1267.08 392.875 1279.32 384.595 1294.8 384.595C1308.66 384.595 1315.5 394.135 1315.5 400.975C1315.5 403.315 1314.96 405.475 1313.88 406.735C1313.34 407.275 1309.2 408.355 1306.68 408.355Z" fill="#EADCDE"/>
<path d="M671.395 746.34C669.768 746.34 668.441 745.98 667.415 745.26C666.401 744.54 665.741 743.573 665.435 742.36L667.635 741.4C667.901 742.267 668.348 742.967 668.975 743.5C669.601 744.02 670.435 744.28 671.475 744.28C672.275 744.28 672.941 744.113 673.475 743.78C674.021 743.433 674.295 742.913 674.295 742.22C674.295 741.567 674.101 741.087 673.715 740.78C673.341 740.46 672.735 740.213 671.895 740.04L669.915 739.62C667.435 739.113 666.195 737.753 666.195 735.54C666.195 734.727 666.401 734.013 666.815 733.4C667.241 732.787 667.848 732.313 668.635 731.98C669.421 731.633 670.341 731.46 671.395 731.46C672.795 731.46 673.975 731.753 674.935 732.34C675.908 732.913 676.548 733.773 676.855 734.92L674.795 736C674.568 735.173 674.155 734.54 673.555 734.1C672.968 733.647 672.208 733.42 671.275 733.42C670.501 733.42 669.875 733.593 669.395 733.94C668.928 734.273 668.695 734.74 668.695 735.34C668.695 735.913 668.861 736.367 669.195 736.7C669.541 737.02 670.108 737.267 670.895 737.44L672.955 737.88C674.221 738.147 675.188 738.6 675.855 739.24C676.521 739.867 676.855 740.78 676.855 741.98C676.855 742.807 676.648 743.553 676.235 744.22C675.821 744.873 675.201 745.393 674.375 745.78C673.561 746.153 672.568 746.34 671.395 746.34ZM683.217 746.24C682.23 746.24 681.363 746.027 680.617 745.6C679.883 745.16 679.317 744.547 678.917 743.76C678.517 742.973 678.317 742.053 678.317 741C678.317 739.373 678.757 738.093 679.637 737.16C680.517 736.227 681.717 735.76 683.237 735.76C684.477 735.76 685.483 736.08 686.257 736.72C687.03 737.347 687.49 738.227 687.637 739.36L685.297 739.74C685.217 739.06 684.99 738.54 684.617 738.18C684.257 737.82 683.777 737.64 683.177 737.64C682.43 737.64 681.843 737.933 681.417 738.52C680.99 739.107 680.777 739.913 680.777 740.94C680.777 742.02 680.99 742.86 681.417 743.46C681.843 744.047 682.443 744.34 683.217 744.34C683.817 744.34 684.297 744.16 684.657 743.8C685.03 743.44 685.27 742.907 685.377 742.2L687.637 742.66C687.463 743.767 686.977 744.64 686.177 745.28C685.39 745.92 684.403 746.24 683.217 746.24ZM692.197 738.42C692.464 737.593 692.864 736.947 693.397 736.48C693.931 736 694.591 735.76 695.377 735.76C695.497 735.76 695.591 735.767 695.657 735.78V738.08H695.337C694.444 738.08 693.751 738.313 693.257 738.78C692.897 739.14 692.657 739.567 692.537 740.06C692.417 740.553 692.357 741.14 692.357 741.82V746H689.957V736H692.197V738.42ZM701.459 746.24C700.499 746.24 699.645 746.033 698.899 745.62C698.165 745.207 697.592 744.607 697.179 743.82C696.765 743.02 696.559 742.073 696.559 740.98C696.559 739.887 696.765 738.947 697.179 738.16C697.592 737.373 698.165 736.78 698.899 736.38C699.645 735.967 700.499 735.76 701.459 735.76C702.419 735.76 703.265 735.967 703.999 736.38C704.745 736.78 705.325 737.373 705.739 738.16C706.152 738.947 706.359 739.887 706.359 740.98C706.359 742.073 706.152 743.02 705.739 743.82C705.325 744.607 704.745 745.207 703.999 745.62C703.265 746.033 702.419 746.24 701.459 746.24ZM701.459 744.42C702.232 744.42 702.832 744.133 703.259 743.56C703.685 742.973 703.899 742.113 703.899 740.98C703.899 739.86 703.685 739.013 703.259 738.44C702.845 737.867 702.245 737.58 701.459 737.58C700.672 737.58 700.065 737.867 699.639 738.44C699.212 739.013 698.999 739.86 698.999 740.98C698.999 742.1 699.212 742.953 699.639 743.54C700.065 744.127 700.672 744.42 701.459 744.42ZM711.227 731.5V746H708.827V731.5H711.227ZM717.008 731.5V746H714.608V731.5H717.008ZM728.588 746.24C727.788 746.24 727.081 746.027 726.468 745.6C725.854 745.16 725.381 744.547 725.048 743.76C724.714 742.96 724.548 742.047 724.548 741.02C724.548 739.993 724.721 739.08 725.068 738.28C725.428 737.48 725.928 736.86 726.568 736.42C727.208 735.98 727.941 735.76 728.768 735.76C730.114 735.76 731.074 736.313 731.648 737.42V731.5H734.048V746H731.788V744.2C731.508 744.84 731.088 745.34 730.528 745.7C729.981 746.06 729.334 746.24 728.588 746.24ZM729.408 744.4C730.114 744.4 730.674 744.127 731.088 743.58C731.501 743.02 731.708 742.273 731.708 741.34V740.7C731.708 739.727 731.501 738.967 731.088 738.42C730.674 737.873 730.108 737.6 729.388 737.6C728.654 737.6 728.081 737.9 727.668 738.5C727.254 739.087 727.048 739.913 727.048 740.98C727.048 742.047 727.254 742.887 727.668 743.5C728.094 744.1 728.674 744.4 729.408 744.4ZM741.4 746.24C740.44 746.24 739.587 746.033 738.84 745.62C738.107 745.207 737.534 744.607 737.12 743.82C736.707 743.02 736.5 742.073 736.5 740.98C736.5 739.887 736.707 738.947 737.12 738.16C737.534 737.373 738.107 736.78 738.84 736.38C739.587 735.967 740.44 735.76 741.4 735.76C742.36 735.76 743.207 735.967 743.94 736.38C744.687 736.78 745.267 737.373 745.68 738.16C746.094 738.947 746.3 739.887 746.3 740.98C746.3 742.073 746.094 743.02 745.68 743.82C745.267 744.607 744.687 745.207 743.94 745.62C743.207 746.033 742.36 746.24 741.4 746.24ZM741.4 744.42C742.174 744.42 742.774 744.133 743.2 743.56C743.627 742.973 743.84 742.113 743.84 740.98C743.84 739.86 743.627 739.013 743.2 738.44C742.787 737.867 742.187 737.58 741.4 737.58C740.614 737.58 740.007 737.867 739.58 738.44C739.154 739.013 738.94 739.86 738.94 740.98C738.94 742.1 739.154 742.953 739.58 743.54C740.007 744.127 740.614 744.42 741.4 744.42ZM747.371 736H749.731L751.271 742.66C751.378 743.193 751.438 743.553 751.451 743.74H751.491C751.545 743.38 751.618 743.02 751.711 742.66L753.351 736H755.611L757.271 742.66C757.285 742.767 757.318 742.933 757.371 743.16C757.425 743.373 757.458 743.567 757.471 743.74H757.511L757.691 742.66L759.251 736H761.611L758.851 746H756.411L754.691 739.4C754.598 739.027 754.538 738.7 754.511 738.42H754.471L754.291 739.4L752.551 746H750.111L747.371 736ZM763.61 736H765.89V737.94C766.57 736.473 767.676 735.74 769.21 735.74C770.303 735.74 771.13 736.087 771.69 736.78C772.25 737.46 772.53 738.467 772.53 739.8V746H770.11V740.04C770.11 738.467 769.49 737.68 768.25 737.68C767.543 737.68 766.99 737.947 766.59 738.48C766.203 739.013 766.01 739.753 766.01 740.7V746H763.61V736Z" fill="#EADCDE"/>
</svg>
