<svg width="1440" height="800" viewBox="0 0 1440 800" fill="none" xmlns="http://www.w3.org/2000/svg">
<rect width="1440" height="800" fill="#E5E5E5"/>
<rect width="1440" height="2865" fill="white"/>
<rect width="1440" height="1000" fill="#EADCDE"/>
<rect y="750" width="1440" height="150" fill="url(#paint0_linear)"/>
<rect width="1440" height="800" fill="#1A376B"/>
<rect width="1440" height="800" fill="#1A376B"/>
<path d="M671.395 746.34C669.768 746.34 668.441 745.98 667.415 745.26C666.401 744.54 665.741 743.573 665.435 742.36L667.635 741.4C667.901 742.267 668.348 742.967 668.975 743.5C669.601 744.02 670.435 744.28 671.475 744.28C672.275 744.28 672.941 744.113 673.475 743.78C674.021 743.433 674.295 742.913 674.295 742.22C674.295 741.567 674.101 741.087 673.715 740.78C673.341 740.46 672.735 740.213 671.895 740.04L669.915 739.62C667.435 739.113 666.195 737.753 666.195 735.54C666.195 734.727 666.401 734.013 666.815 733.4C667.241 732.787 667.848 732.313 668.635 731.98C669.421 731.633 670.341 731.46 671.395 731.46C672.795 731.46 673.975 731.753 674.935 732.34C675.908 732.913 676.548 733.773 676.855 734.92L674.795 736C674.568 735.173 674.155 734.54 673.555 734.1C672.968 733.647 672.208 733.42 671.275 733.42C670.501 733.42 669.875 733.593 669.395 733.94C668.928 734.273 668.695 734.74 668.695 735.34C668.695 735.913 668.861 736.367 669.195 736.7C669.541 737.02 670.108 737.267 670.895 737.44L672.955 737.88C674.221 738.147 675.188 738.6 675.855 739.24C676.521 739.867 676.855 740.78 676.855 741.98C676.855 742.807 676.648 743.553 676.235 744.22C675.821 744.873 675.201 745.393 674.375 745.78C673.561 746.153 672.568 746.34 671.395 746.34ZM683.217 746.24C682.23 746.24 681.363 746.027 680.617 745.6C679.883 745.16 679.317 744.547 678.917 743.76C678.517 742.973 678.317 742.053 678.317 741C678.317 739.373 678.757 738.093 679.637 737.16C680.517 736.227 681.717 735.76 683.237 735.76C684.477 735.76 685.483 736.08 686.257 736.72C687.03 737.347 687.49 738.227 687.637 739.36L685.297 739.74C685.217 739.06 684.99 738.54 684.617 738.18C684.257 737.82 683.777 737.64 683.177 737.64C682.43 737.64 681.843 737.933 681.417 738.52C680.99 739.107 680.777 739.913 680.777 740.94C680.777 742.02 680.99 742.86 681.417 743.46C681.843 744.047 682.443 744.34 683.217 744.34C683.817 744.34 684.297 744.16 684.657 743.8C685.03 743.44 685.27 742.907 685.377 742.2L687.637 742.66C687.463 743.767 686.977 744.64 686.177 745.28C685.39 745.92 684.403 746.24 683.217 746.24ZM692.197 738.42C692.464 737.593 692.864 736.947 693.397 736.48C693.931 736 694.591 735.76 695.377 735.76C695.497 735.76 695.591 735.767 695.657 735.78V738.08H695.337C694.444 738.08 693.751 738.313 693.257 738.78C692.897 739.14 692.657 739.567 692.537 740.06C692.417 740.553 692.357 741.14 692.357 741.82V746H689.957V736H692.197V738.42ZM701.459 746.24C700.499 746.24 699.645 746.033 698.899 745.62C698.165 745.207 697.592 744.607 697.179 743.82C696.765 743.02 696.559 742.073 696.559 740.98C696.559 739.887 696.765 738.947 697.179 738.16C697.592 737.373 698.165 736.78 698.899 736.38C699.645 735.967 700.499 735.76 701.459 735.76C702.419 735.76 703.265 735.967 703.999 736.38C704.745 736.78 705.325 737.373 705.739 738.16C706.152 738.947 706.359 739.887 706.359 740.98C706.359 742.073 706.152 743.02 705.739 743.82C705.325 744.607 704.745 745.207 703.999 745.62C703.265 746.033 702.419 746.24 701.459 746.24ZM701.459 744.42C702.232 744.42 702.832 744.133 703.259 743.56C703.685 742.973 703.899 742.113 703.899 740.98C703.899 739.86 703.685 739.013 703.259 738.44C702.845 737.867 702.245 737.58 701.459 737.58C700.672 737.58 700.065 737.867 699.639 738.44C699.212 739.013 698.999 739.86 698.999 740.98C698.999 742.1 699.212 742.953 699.639 743.54C700.065 744.127 700.672 744.42 701.459 744.42ZM711.227 731.5V746H708.827V731.5H711.227ZM717.008 731.5V746H714.608V731.5H717.008ZM728.588 746.24C727.788 746.24 727.081 746.027 726.468 745.6C725.854 745.16 725.381 744.547 725.048 743.76C724.714 742.96 724.548 742.047 724.548 741.02C724.548 739.993 724.721 739.08 725.068 738.28C725.428 737.48 725.928 736.86 726.568 736.42C727.208 735.98 727.941 735.76 728.768 735.76C730.114 735.76 731.074 736.313 731.648 737.42V731.5H734.048V746H731.788V744.2C731.508 744.84 731.088 745.34 730.528 745.7C729.981 746.06 729.334 746.24 728.588 746.24ZM729.408 744.4C730.114 744.4 730.674 744.127 731.088 743.58C731.501 743.02 731.708 742.273 731.708 741.34V740.7C731.708 739.727 731.501 738.967 731.088 738.42C730.674 737.873 730.108 737.6 729.388 737.6C728.654 737.6 728.081 737.9 727.668 738.5C727.254 739.087 727.048 739.913 727.048 740.98C727.048 742.047 727.254 742.887 727.668 743.5C728.094 744.1 728.674 744.4 729.408 744.4ZM741.4 746.24C740.44 746.24 739.587 746.033 738.84 745.62C738.107 745.207 737.534 744.607 737.12 743.82C736.707 743.02 736.5 742.073 736.5 740.98C736.5 739.887 736.707 738.947 737.12 738.16C737.534 737.373 738.107 736.78 738.84 736.38C739.587 735.967 740.44 735.76 741.4 735.76C742.36 735.76 743.207 735.967 743.94 736.38C744.687 736.78 745.267 737.373 745.68 738.16C746.094 738.947 746.3 739.887 746.3 740.98C746.3 742.073 746.094 743.02 745.68 743.82C745.267 744.607 744.687 745.207 743.94 745.62C743.207 746.033 742.36 746.24 741.4 746.24ZM741.4 744.42C742.174 744.42 742.774 744.133 743.2 743.56C743.627 742.973 743.84 742.113 743.84 740.98C743.84 739.86 743.627 739.013 743.2 738.44C742.787 737.867 742.187 737.58 741.4 737.58C740.614 737.58 740.007 737.867 739.58 738.44C739.154 739.013 738.94 739.86 738.94 740.98C738.94 742.1 739.154 742.953 739.58 743.54C740.007 744.127 740.614 744.42 741.4 744.42ZM747.371 736H749.731L751.271 742.66C751.378 743.193 751.438 743.553 751.451 743.74H751.491C751.545 743.38 751.618 743.02 751.711 742.66L753.351 736H755.611L757.271 742.66C757.285 742.767 757.318 742.933 757.371 743.16C757.425 743.373 757.458 743.567 757.471 743.74H757.511L757.691 742.66L759.251 736H761.611L758.851 746H756.411L754.691 739.4C754.598 739.027 754.538 738.7 754.511 738.42H754.471L754.291 739.4L752.551 746H750.111L747.371 736ZM763.61 736H765.89V737.94C766.57 736.473 767.676 735.74 769.21 735.74C770.303 735.74 771.13 736.087 771.69 736.78C772.25 737.46 772.53 738.467 772.53 739.8V746H770.11V740.04C770.11 738.467 769.49 737.68 768.25 737.68C767.543 737.68 766.99 737.947 766.59 738.48C766.203 739.013 766.01 739.753 766.01 740.7V746H763.61V736Z" fill="#EADCDE"/>
<g clip-path="url(#clip0)">
<path d="M136.9 472.4C167 472.4 181 453.3 183.9 424.3H185.3L183.1 466.2C173.4 470.5 156.6 474.1 137.2 474.1C98.5 474.2 69 447 69 410.2C69 372.6 100.9 345.9 137.9 345.9C153 345.9 173 349.5 182.7 353.8L184.9 393H183.3C180.4 364.4 166.2 347.6 138.3 347.6C105.9 347.6 85.2 373 85.2 410.1C85.2 447 104.1 472.4 136.9 472.4Z" fill="#F4DEE1"/>
<path d="M200.5 429.2C200.5 403.3 220.3 380.6 248 380.6C273.4 380.6 292.3 398.4 292.3 426.1C292.3 449.3 272.3 474.2 245.1 474.2C219.8 474.2 200.5 456.4 200.5 429.2ZM277.7 429.1C277.7 406.6 265.6 382.5 245.8 382.5C224.7 382.5 215.4 400 215.4 426.2C215.4 448.3 227.3 472.3 248.2 472.3C267.3 472.2 277.7 455.7 277.7 429.1Z" fill="#F4DEE1"/>
<path d="M299.5 470.8C307.6 470.8 308 470.3 308 451V404.6C308 399.4 303.9 394.7 299.7 390.9C299.2 390.4 299.3 390 299.7 389.8C302.9 388.5 309.8 385.3 312.8 382.2C313.2 381.8 313.3 381.8 313.9 382.4C317.1 385.6 320.9 392.8 321.1 400.4C329.9 388 339.3 380.6 353.1 380.6C363.9 380.6 375.6 385.1 380.5 400.9C389.7 388.3 399 380.6 413.1 380.6C428.8 380.6 443.2 388.9 443.2 417.1V463.4C443.2 470.2 443.6 471 452.4 470.8C453.8 470.8 453.8 472.4 452.4 472.4C451 472.4 438.7 472 435.8 472C433.1 472 422.5 472.4 417.3 472.4C415.9 472.4 415.9 470.8 417.3 470.8C429.5 470.8 429.7 470.4 429.7 451.4V415.4C429.7 393.1 418.2 386.1 407.2 386.1C393.9 386.1 387.9 393.7 381.3 402.8V463.5C381.3 470.3 383.3 471.1 392.1 470.9C393.5 470.9 393.5 472.5 392.1 472.5C390.7 472.5 377.7 472.1 374.8 472.1C372.1 472.1 362 472.5 356.8 472.5C355.4 472.5 355.4 470.9 356.8 470.9C368 470.9 367.8 470.5 367.8 451.5V415.5C367.8 393.2 358.3 386.2 347.3 386.2C336 386.2 329.5 391.2 321.4 402.6V471H332C333.4 471 333.4 472.6 332 472.6C330.6 472.6 320.1 472.2 317.2 472.2C314.5 472.2 304.8 472.6 299.6 472.6C298 472.4 298 470.8 299.5 470.8Z" fill="#F4DEE1"/>
<path d="M457 431C457 404 482.2 380.6 507 380.6C532.9 380.6 539.4 396.6 538.3 404.9C537.9 408 536.3 410.5 530.7 410.5H469.1C468.2 414.6 467.7 419.3 467.7 424.4C467.7 446.5 487 463.8 511.3 463.8C533.3 463.8 546.6 450.3 556.5 428.9C557.4 426.7 558.7 427.3 557.8 429.3C548.3 451.4 529.4 474.3 502.2 474.3C474.7 474.2 457 455.9 457 431ZM521.1 406.7C522.2 405.4 522.7 403.3 522.7 400.9C522.7 394.1 515.9 384.5 502 384.5C486.5 384.5 474.3 392.8 469.6 409C489.9 409 502.2 408.3 513.9 408.3C516.4 408.4 520.6 407.3 521.1 406.7Z" fill="#F4DEE1"/>
<path d="M675 472.4C705.1 472.4 719.1 453.3 722 424.3H723.4L721.2 466.2C711.5 470.5 694.7 474.1 675.3 474.1C636.6 474.1 607.1 446.9 607.1 410C607.1 372.4 639 345.7 676 345.7C691.1 345.7 711.1 349.3 720.8 353.6L723 392.8H721.4C718.5 364.2 704.3 347.4 676.4 347.4C644 347.4 623.3 372.8 623.3 409.9C623.3 447 642.2 472.4 675 472.4Z" fill="#F4DEE1"/>
<path d="M734.9 431C734.9 404 760.1 380.6 784.9 380.6C810.8 380.6 817.3 396.6 816.2 404.9C815.8 408 814.2 410.5 808.6 410.5H747C746.1 414.6 745.6 419.3 745.6 424.4C745.6 446.5 764.9 463.8 789.2 463.8C811.2 463.8 824.5 450.3 834.4 428.9C835.3 426.7 836.6 427.3 835.7 429.3C826.2 451.4 807.3 474.3 780.1 474.3C752.6 474.2 734.9 455.9 734.9 431ZM799 406.7C800.1 405.4 800.6 403.3 800.6 400.9C800.6 394.1 793.8 384.5 779.9 384.5C764.4 384.5 752.2 392.8 747.5 409C767.8 409 780.1 408.3 791.8 408.3C794.3 408.4 798.5 407.3 799 406.7Z" fill="#F4DEE1"/>
<path d="M831.2 472.4C829.8 472.4 829.8 470.8 831.2 470.8C838.9 470.8 839.3 468.6 839.3 451V349.9C839.3 334.4 836.8 334.2 827.8 335.9C826.4 336.1 826.4 334.5 827.8 334.3C836.8 332.7 843.5 329.6 849.6 326.2C850.1 325.8 852.8 326.6 852.8 327.5V451C852.8 469.7 853.5 470.8 863.4 470.8C864.8 470.8 864.8 472.4 863.4 472.4C858.2 472.4 851.2 472 848.5 472C845.8 472.1 836.5 472.4 831.2 472.4Z" fill="#F4DEE1"/>
<path d="M867.5 431C867.5 404 892.7 380.6 917.5 380.6C943.4 380.6 949.9 396.6 948.8 404.9C948.4 408 946.8 410.5 941.2 410.5H879.6C878.7 414.6 878.2 419.3 878.2 424.4C878.2 446.5 897.5 463.8 921.8 463.8C943.8 463.8 957.1 450.3 967 428.9C967.9 426.7 969.2 427.3 968.3 429.3C958.8 451.4 939.9 474.3 912.7 474.3C885.1 474.2 867.5 455.9 867.5 431ZM931.5 406.7C932.6 405.4 933.1 403.3 933.1 400.9C933.1 394.1 926.3 384.5 912.4 384.5C896.9 384.5 884.7 392.8 880 409C900.3 409 912.6 408.3 924.3 408.3C926.9 408.4 931 407.3 931.5 406.7Z" fill="#F4DEE1"/>
<path d="M971.6 349.9C971.6 334.4 969.1 336 960.1 337.7C958.7 337.9 958.7 336.3 960.1 336.1C969.1 334.5 975.8 329.6 981.9 326.2C982.4 325.8 985.1 326.6 985.1 327.5V400.2C993.6 388.1 1007.2 380.8 1021.1 380.8C1041.6 380.8 1059.1 398.3 1059.1 423.1C1059.1 452.8 1033.5 474.4 1007.6 474.4C995 474.4 985.6 468.6 980.2 463.6C974.4 471.5 973.4 472.8 972.5 472.8C972 472.8 971.6 472.3 971.6 471.2V349.9ZM1045.8 429.4C1045.8 408.3 1034.6 386.6 1012.3 386.6C1002.2 386.6 991.2 392.5 985.1 402.1V453.4C991.6 460.4 1002.2 470.3 1015.2 470.3C1034.6 470.3 1045.8 455.9 1045.8 429.4Z" fill="#F4DEE1"/>
<path d="M1110.7 380.6C1115 380.6 1118.8 381.5 1118.8 383.8C1118.8 386.7 1116.1 393.2 1109.8 393.2H1103.1C1090.1 393.2 1088.9 395 1088.9 410.5V470.8H1099.9C1101.3 470.8 1101.3 472.4 1099.9 472.4C1098.5 472.4 1086.8 472 1083.9 472C1081.2 472 1070.8 472.4 1065.5 472.4C1064.1 472.4 1064.1 470.8 1065.5 470.8C1074.3 470.8 1075.6 469.7 1075.6 451V404.6C1075.6 399.4 1071.5 394.7 1067.3 390.9C1066.8 390.4 1066.9 390 1067.3 389.8C1070.5 388.5 1076.7 385.3 1079.7 382.2C1080.1 381.8 1080.2 381.8 1080.8 382.4C1083.9 385.3 1087.8 391.9 1088.5 399C1090.7 391.1 1095.5 386.9 1100.4 383.7C1103.5 381.7 1107.1 380.6 1110.7 380.6Z" fill="#F4DEE1"/>
<path d="M1121 454.2C1121 442.1 1132.7 430.3 1166 417.3L1180.9 411.5C1180.2 389 1174.4 382.2 1161.6 382.2C1145.8 382.2 1142.3 396.4 1138.4 402.2C1136.8 404.5 1135.2 405.4 1130.3 405.4C1126 405.4 1123.1 403.8 1123.1 401.3C1123.1 399.1 1124.9 395.7 1129.4 392.8C1136.6 388.1 1151.7 380.6 1164.5 380.6C1182.1 380.6 1194.9 389.8 1194.9 413.4C1194.9 425.5 1193.5 445.8 1193.5 452.8C1193.5 463.1 1194.8 468.1 1198.5 468.1C1201.7 468.1 1206.2 461.8 1208.2 458.2C1209.1 456.8 1211.3 458.2 1210.4 459.6C1207.5 463.7 1196.2 474.2 1189.2 474.2C1182.4 474.2 1178.9 469.5 1178.9 461.4C1178.9 456.7 1179.3 450.4 1179.6 446.6C1174.7 454.9 1155.8 474.3 1143.2 474.3C1128.9 474.4 1121 465.2 1121 454.2ZM1152.3 466.5C1162.4 466.5 1178.4 448.5 1180 442.6C1180.2 440.3 1181.1 431.4 1181.1 416.7V412.9L1166.3 419.2C1139.8 430.4 1133.5 435.8 1133.5 449.1C1133.6 458.7 1143.5 466.5 1152.3 466.5Z" fill="#F4DEE1"/>
<path d="M1232.5 382.6C1237.9 382.6 1250.9 382.6 1256.8 382.4C1262.7 382.2 1263.1 382.4 1263.1 382.8C1263.1 383.9 1259.9 387.5 1254.3 392.5C1252.9 392.5 1238.3 392.3 1232.2 392.3V448.8C1232.2 461.8 1236.3 468.6 1243.9 468.6C1251.1 468.6 1258.1 461.9 1262.3 449.9C1262.8 448.5 1265.4 449.5 1264.6 451C1258.8 462.7 1248.4 474.2 1236 474.2C1223.9 474.2 1218.7 466.6 1218.7 449.4V392.3H1208.8C1208.6 392.3 1208.4 391.8 1208.8 391.4L1231.8 364.9C1232.2 364.5 1232.5 364.4 1232.5 365.1V382.6V382.6Z" fill="#F4DEE1"/>
<path d="M1270 431C1270 404 1295.2 380.6 1320 380.6C1345.9 380.6 1352.4 396.6 1351.3 404.9C1350.9 408 1349.3 410.5 1343.7 410.5H1282.1C1281.2 414.6 1280.7 419.3 1280.7 424.4C1280.7 446.5 1300 463.8 1324.3 463.8C1346.3 463.8 1359.6 450.3 1369.5 428.9C1370.4 426.7 1371.7 427.3 1370.8 429.3C1361.3 451.4 1342.4 474.3 1315.2 474.3C1287.6 474.2 1270 455.9 1270 431ZM1334 406.7C1335.1 405.4 1335.6 403.3 1335.6 400.9C1335.6 394.1 1328.8 384.5 1314.9 384.5C1299.4 384.5 1287.2 392.8 1282.5 409C1302.8 409 1315.1 408.3 1326.8 408.3C1329.4 408.4 1333.5 407.3 1334 406.7Z" fill="#F4DEE1"/>
</g>
<rect y="798" width="1440" height="1000" fill="#F4DEE1"/>
<defs>
<linearGradient id="paint0_linear" x1="720" y1="750" x2="720" y2="900" gradientUnits="userSpaceOnUse">
<stop stop-color="#1A376B" stop-opacity="0"/>
<stop offset="1" stop-color="#1A376B"/>
</linearGradient>
<clipPath id="clip0">
<rect width="1302.1" height="148.4" fill="white" transform="translate(69 326)"/>
</clipPath>
</defs>
</svg>
