<?xml version="1.0" encoding="utf-8"?>
<!-- Generator: Adobe Illustrator 22.1.0, SVG Export Plug-In . SVG Version: 6.00 Build 0)  -->
<svg version="1.1" id="Layer_1" xmlns="http://www.w3.org/2000/svg" xmlns:xlink="http://www.w3.org/1999/xlink" x="0px" y="0px"
	 viewBox="0 0 1440 800" style="enable-background:new 0 0 1440 800;" xml:space="preserve">
<style type="text/css">
	.st0{fill:#E5E5E5;}
	.st1{fill:#1A376B;}
	.st2{fill:#EADCDE;}
	.st3{clip-path:url(#SVGID_2_);}
	.st4{fill:#F4DEE1;}
</style>
<rect class="st0" width="1440" height="800"/>
<rect class="st1" width="1440" height="800"/>
<rect class="st1" width="1440" height="800"/>
<path class="st2" d="M671.4,746.3c-1.6,0-3-0.4-4-1.1c-1-0.7-1.7-1.7-2-2.9l2.2-1c0.3,0.9,0.7,1.6,1.3,2.1c0.6,0.5,1.5,0.8,2.5,0.8
	c0.8,0,1.5-0.2,2-0.5c0.5-0.3,0.8-0.9,0.8-1.6c0-0.7-0.2-1.1-0.6-1.4c-0.4-0.3-1-0.6-1.8-0.7l-2-0.4c-2.5-0.5-3.7-1.9-3.7-4.1
	c0-0.8,0.2-1.5,0.6-2.1c0.4-0.6,1-1.1,1.8-1.4c0.8-0.3,1.7-0.5,2.8-0.5c1.4,0,2.6,0.3,3.5,0.9c1,0.6,1.6,1.4,1.9,2.6l-2.1,1.1
	c-0.2-0.8-0.6-1.5-1.2-1.9c-0.6-0.5-1.3-0.7-2.3-0.7c-0.8,0-1.4,0.2-1.9,0.5c-0.5,0.3-0.7,0.8-0.7,1.4c0,0.6,0.2,1,0.5,1.4
	c0.3,0.3,0.9,0.6,1.7,0.7l2.1,0.4c1.3,0.3,2.2,0.7,2.9,1.4c0.7,0.6,1,1.5,1,2.7c0,0.8-0.2,1.6-0.6,2.2c-0.4,0.7-1,1.2-1.9,1.6
	C673.6,746.2,672.6,746.3,671.4,746.3z M683.2,746.2c-1,0-1.9-0.2-2.6-0.6c-0.7-0.4-1.3-1.1-1.7-1.8c-0.4-0.8-0.6-1.7-0.6-2.8
	c0-1.6,0.4-2.9,1.3-3.8c0.9-0.9,2.1-1.4,3.6-1.4c1.2,0,2.2,0.3,3,1c0.8,0.6,1.2,1.5,1.4,2.6l-2.3,0.4c-0.1-0.7-0.3-1.2-0.7-1.6
	c-0.4-0.4-0.8-0.5-1.4-0.5c-0.7,0-1.3,0.3-1.8,0.9c-0.4,0.6-0.6,1.4-0.6,2.4c0,1.1,0.2,1.9,0.6,2.5c0.4,0.6,1,0.9,1.8,0.9
	c0.6,0,1.1-0.2,1.4-0.5c0.4-0.4,0.6-0.9,0.7-1.6l2.3,0.5c-0.2,1.1-0.7,2-1.5,2.6C685.4,745.9,684.4,746.2,683.2,746.2z M692.2,738.4
	c0.3-0.8,0.7-1.5,1.2-1.9c0.5-0.5,1.2-0.7,2-0.7c0.1,0,0.2,0,0.3,0v2.3h-0.3c-0.9,0-1.6,0.2-2.1,0.7c-0.4,0.4-0.6,0.8-0.7,1.3
	s-0.2,1.1-0.2,1.8v4.2H690v-10h2.2V738.4z M701.5,746.2c-1,0-1.8-0.2-2.6-0.6c-0.7-0.4-1.3-1-1.7-1.8c-0.4-0.8-0.6-1.7-0.6-2.8
	c0-1.1,0.2-2,0.6-2.8c0.4-0.8,1-1.4,1.7-1.8c0.7-0.4,1.6-0.6,2.6-0.6c1,0,1.8,0.2,2.5,0.6c0.7,0.4,1.3,1,1.7,1.8
	c0.4,0.8,0.6,1.7,0.6,2.8c0,1.1-0.2,2-0.6,2.8c-0.4,0.8-1,1.4-1.7,1.8C703.3,746,702.4,746.2,701.5,746.2z M701.5,744.4
	c0.8,0,1.4-0.3,1.8-0.9c0.4-0.6,0.6-1.4,0.6-2.6c0-1.1-0.2-2-0.6-2.5c-0.4-0.6-1-0.9-1.8-0.9c-0.8,0-1.4,0.3-1.8,0.9
	c-0.4,0.6-0.6,1.4-0.6,2.5s0.2,2,0.6,2.6C700.1,744.1,700.7,744.4,701.5,744.4z M711.2,731.5V746h-2.4v-14.5H711.2z M717,731.5V746
	h-2.4v-14.5H717z M728.6,746.2c-0.8,0-1.5-0.2-2.1-0.6c-0.6-0.4-1.1-1.1-1.4-1.8c-0.3-0.8-0.5-1.7-0.5-2.7c0-1,0.2-1.9,0.5-2.7
	c0.4-0.8,0.9-1.4,1.5-1.9s1.4-0.7,2.2-0.7c1.3,0,2.3,0.6,2.9,1.7v-5.9h2.4V746h-2.3v-1.8c-0.3,0.6-0.7,1.1-1.3,1.5
	C730,746.1,729.3,746.2,728.6,746.2z M729.4,744.4c0.7,0,1.3-0.3,1.7-0.8c0.4-0.6,0.6-1.3,0.6-2.2v-0.6c0-1-0.2-1.7-0.6-2.3
	c-0.4-0.5-1-0.8-1.7-0.8c-0.7,0-1.3,0.3-1.7,0.9c-0.4,0.6-0.6,1.4-0.6,2.5c0,1.1,0.2,1.9,0.6,2.5
	C728.1,744.1,728.7,744.4,729.4,744.4z M741.4,746.2c-1,0-1.8-0.2-2.6-0.6c-0.7-0.4-1.3-1-1.7-1.8c-0.4-0.8-0.6-1.7-0.6-2.8
	c0-1.1,0.2-2,0.6-2.8c0.4-0.8,1-1.4,1.7-1.8c0.7-0.4,1.6-0.6,2.6-0.6c1,0,1.8,0.2,2.5,0.6c0.7,0.4,1.3,1,1.7,1.8
	c0.4,0.8,0.6,1.7,0.6,2.8c0,1.1-0.2,2-0.6,2.8c-0.4,0.8-1,1.4-1.7,1.8C743.2,746,742.4,746.2,741.4,746.2z M741.4,744.4
	c0.8,0,1.4-0.3,1.8-0.9c0.4-0.6,0.6-1.4,0.6-2.6c0-1.1-0.2-2-0.6-2.5c-0.4-0.6-1-0.9-1.8-0.9c-0.8,0-1.4,0.3-1.8,0.9
	c-0.4,0.6-0.6,1.4-0.6,2.5s0.2,2,0.6,2.6C740,744.1,740.6,744.4,741.4,744.4z M747.4,736h2.4l1.5,6.7c0.1,0.5,0.2,0.9,0.2,1.1h0
	c0.1-0.4,0.1-0.7,0.2-1.1l1.6-6.7h2.3l1.7,6.7c0,0.1,0,0.3,0.1,0.5c0.1,0.2,0.1,0.4,0.1,0.6h0l0.2-1.1l1.6-6.7h2.4l-2.8,10h-2.4
	l-1.7-6.6c-0.1-0.4-0.2-0.7-0.2-1h0l-0.2,1l-1.7,6.6h-2.4L747.4,736z M763.6,736h2.3v1.9c0.7-1.5,1.8-2.2,3.3-2.2
	c1.1,0,1.9,0.3,2.5,1c0.6,0.7,0.8,1.7,0.8,3v6.2h-2.4v-6c0-1.6-0.6-2.4-1.9-2.4c-0.7,0-1.3,0.3-1.7,0.8c-0.4,0.5-0.6,1.3-0.6,2.2
	v5.3h-2.4V736z"/>
<g>
	<defs>
		<rect id="SVGID_1_" x="69" y="326" width="1302.1" height="148.4"/>
	</defs>
	<clipPath id="SVGID_2_">
		<use xlink:href="#SVGID_1_"  style="overflow:visible;"/>
	</clipPath>
	<g class="st3">
		<path class="st4" d="M136.9,472.4c30.1,0,44.1-19.1,47-48.1h1.4l-2.2,41.9c-9.7,4.3-26.5,7.9-45.9,7.9C98.5,474.2,69,447,69,410.2
			c0-37.6,31.9-64.3,68.9-64.3c15.1,0,35.1,3.6,44.8,7.9l2.2,39.2h-1.6c-2.9-28.6-17.1-45.4-45-45.4c-32.4,0-53.1,25.4-53.1,62.5
			C85.2,447,104.1,472.4,136.9,472.4z"/>
		<path class="st4" d="M200.5,429.2c0-25.9,19.8-48.6,47.5-48.6c25.4,0,44.3,17.8,44.3,45.5c0,23.2-20,48.1-47.2,48.1
			C219.8,474.2,200.5,456.4,200.5,429.2z M277.7,429.1c0-22.5-12.1-46.6-31.9-46.6c-21.1,0-30.4,17.5-30.4,43.7
			c0,22.1,11.9,46.1,32.8,46.1C267.3,472.2,277.7,455.7,277.7,429.1z"/>
		<path class="st4" d="M299.5,470.8c8.1,0,8.5-0.5,8.5-19.8v-46.4c0-5.2-4.1-9.9-8.3-13.7c-0.5-0.5-0.4-0.9,0-1.1
			c3.2-1.3,10.1-4.5,13.1-7.6c0.4-0.4,0.5-0.4,1.1,0.2c3.2,3.2,7,10.4,7.2,18c8.8-12.4,18.2-19.8,32-19.8c10.8,0,22.5,4.5,27.4,20.3
			c9.2-12.6,18.5-20.3,32.6-20.3c15.7,0,30.1,8.3,30.1,36.5v46.3c0,6.8,0.4,7.6,9.2,7.4c1.4,0,1.4,1.6,0,1.6s-13.7-0.4-16.6-0.4
			c-2.7,0-13.3,0.4-18.5,0.4c-1.4,0-1.4-1.6,0-1.6c12.2,0,12.4-0.4,12.4-19.4v-36c0-22.3-11.5-29.3-22.5-29.3
			c-13.3,0-19.3,7.6-25.9,16.7v60.7c0,6.8,2,7.6,10.8,7.4c1.4,0,1.4,1.6,0,1.6s-14.4-0.4-17.3-0.4c-2.7,0-12.8,0.4-18,0.4
			c-1.4,0-1.4-1.6,0-1.6c11.2,0,11-0.4,11-19.4v-36c0-22.3-9.5-29.3-20.5-29.3c-11.3,0-17.8,5-25.9,16.4V471H332
			c1.4,0,1.4,1.6,0,1.6s-11.9-0.4-14.8-0.4c-2.7,0-12.4,0.4-17.6,0.4C298,472.4,298,470.8,299.5,470.8z"/>
		<path class="st4" d="M457,431c0-27,25.2-50.4,50-50.4c25.9,0,32.4,16,31.3,24.3c-0.4,3.1-2,5.6-7.6,5.6h-61.6
			c-0.9,4.1-1.4,8.8-1.4,13.9c0,22.1,19.3,39.4,43.6,39.4c22,0,35.3-13.5,45.2-34.9c0.9-2.2,2.2-1.6,1.3,0.4
			c-9.5,22.1-28.4,45-55.6,45C474.7,474.2,457,455.9,457,431z M521.1,406.7c1.1-1.3,1.6-3.4,1.6-5.8c0-6.8-6.8-16.4-20.7-16.4
			c-15.5,0-27.7,8.3-32.4,24.5c20.3,0,32.6-0.7,44.3-0.7C516.4,408.4,520.6,407.3,521.1,406.7z"/>
		<path class="st4" d="M675,472.4c30.1,0,44.1-19.1,47-48.1h1.4l-2.2,41.9c-9.7,4.3-26.5,7.9-45.9,7.9c-38.7,0-68.2-27.2-68.2-64.1
			c0-37.6,31.9-64.3,68.9-64.3c15.1,0,35.1,3.6,44.8,7.9l2.2,39.2h-1.6c-2.9-28.6-17.1-45.4-45-45.4c-32.4,0-53.1,25.4-53.1,62.5
			S642.2,472.4,675,472.4z"/>
		<path class="st4" d="M734.9,431c0-27,25.2-50.4,50-50.4c25.9,0,32.4,16,31.3,24.3c-0.4,3.1-2,5.6-7.6,5.6H747
			c-0.9,4.1-1.4,8.8-1.4,13.9c0,22.1,19.3,39.4,43.6,39.4c22,0,35.3-13.5,45.2-34.9c0.9-2.2,2.2-1.6,1.3,0.4
			c-9.5,22.1-28.4,45-55.6,45C752.6,474.2,734.9,455.9,734.9,431z M799,406.7c1.1-1.3,1.6-3.4,1.6-5.8c0-6.8-6.8-16.4-20.7-16.4
			c-15.5,0-27.7,8.3-32.4,24.5c20.3,0,32.6-0.7,44.3-0.7C794.3,408.4,798.5,407.3,799,406.7z"/>
		<path class="st4" d="M831.2,472.4c-1.4,0-1.4-1.6,0-1.6c7.7,0,8.1-2.2,8.1-19.8V349.9c0-15.5-2.5-15.7-11.5-14
			c-1.4,0.2-1.4-1.4,0-1.6c9-1.6,15.7-4.7,21.8-8.1c0.5-0.4,3.2,0.4,3.2,1.3V451c0,18.7,0.7,19.8,10.6,19.8c1.4,0,1.4,1.6,0,1.6
			c-5.2,0-12.2-0.4-14.9-0.4C845.8,472.1,836.5,472.4,831.2,472.4z"/>
		<path class="st4" d="M867.5,431c0-27,25.2-50.4,50-50.4c25.9,0,32.4,16,31.3,24.3c-0.4,3.1-2,5.6-7.6,5.6h-61.6
			c-0.9,4.1-1.4,8.8-1.4,13.9c0,22.1,19.3,39.4,43.6,39.4c22,0,35.3-13.5,45.2-34.9c0.9-2.2,2.2-1.6,1.3,0.4
			c-9.5,22.1-28.4,45-55.6,45C885.1,474.2,867.5,455.9,867.5,431z M931.5,406.7c1.1-1.3,1.6-3.4,1.6-5.8c0-6.8-6.8-16.4-20.7-16.4
			c-15.5,0-27.7,8.3-32.4,24.5c20.3,0,32.6-0.7,44.3-0.7C926.9,408.4,931,407.3,931.5,406.7z"/>
		<path class="st4" d="M971.6,349.9c0-15.5-2.5-13.9-11.5-12.2c-1.4,0.2-1.4-1.4,0-1.6c9-1.6,15.7-6.5,21.8-9.9
			c0.5-0.4,3.2,0.4,3.2,1.3v72.7c8.5-12.1,22.1-19.4,36-19.4c20.5,0,38,17.5,38,42.3c0,29.7-25.6,51.3-51.5,51.3
			c-12.6,0-22-5.8-27.4-10.8c-5.8,7.9-6.8,9.2-7.7,9.2c-0.5,0-0.9-0.5-0.9-1.6V349.9z M1045.8,429.4c0-21.1-11.2-42.8-33.5-42.8
			c-10.1,0-21.1,5.9-27.2,15.5v51.3c6.5,7,17.1,16.9,30.1,16.9C1034.6,470.3,1045.8,455.9,1045.8,429.4z"/>
		<path class="st4" d="M1110.7,380.6c4.3,0,8.1,0.9,8.1,3.2c0,2.9-2.7,9.4-9,9.4h-6.7c-13,0-14.2,1.8-14.2,17.3v60.3h11
			c1.4,0,1.4,1.6,0,1.6s-13.1-0.4-16-0.4c-2.7,0-13.1,0.4-18.4,0.4c-1.4,0-1.4-1.6,0-1.6c8.8,0,10.1-1.1,10.1-19.8v-46.4
			c0-5.2-4.1-9.9-8.3-13.7c-0.5-0.5-0.4-0.9,0-1.1c3.2-1.3,9.4-4.5,12.4-7.6c0.4-0.4,0.5-0.4,1.1,0.2c3.1,2.9,7,9.5,7.7,16.6
			c2.2-7.9,7-12.1,11.9-15.3C1103.5,381.7,1107.1,380.6,1110.7,380.6z"/>
		<path class="st4" d="M1121,454.2c0-12.1,11.7-23.9,45-36.9l14.9-5.8c-0.7-22.5-6.5-29.3-19.3-29.3c-15.8,0-19.3,14.2-23.2,20
			c-1.6,2.3-3.2,3.2-8.1,3.2c-4.3,0-7.2-1.6-7.2-4.1c0-2.2,1.8-5.6,6.3-8.5c7.2-4.7,22.3-12.2,35.1-12.2c17.6,0,30.4,9.2,30.4,32.8
			c0,12.1-1.4,32.4-1.4,39.4c0,10.3,1.3,15.3,5,15.3c3.2,0,7.7-6.3,9.7-9.9c0.9-1.4,3.1,0,2.2,1.4c-2.9,4.1-14.2,14.6-21.2,14.6
			c-6.8,0-10.3-4.7-10.3-12.8c0-4.7,0.4-11,0.7-14.8c-4.9,8.3-23.8,27.7-36.4,27.7C1128.9,474.4,1121,465.2,1121,454.2z
			 M1152.3,466.5c10.1,0,26.1-18,27.7-23.9c0.2-2.3,1.1-11.2,1.1-25.9v-3.8l-14.8,6.3c-26.5,11.2-32.8,16.6-32.8,29.9
			C1133.6,458.7,1143.5,466.5,1152.3,466.5z"/>
		<path class="st4" d="M1232.5,382.6c5.4,0,18.4,0,24.3-0.2c5.9-0.2,6.3,0,6.3,0.4c0,1.1-3.2,4.7-8.8,9.7c-1.4,0-16-0.2-22.1-0.2
			v56.5c0,13,4.1,19.8,11.7,19.8c7.2,0,14.2-6.7,18.4-18.7c0.5-1.4,3.1-0.4,2.3,1.1c-5.8,11.7-16.2,23.2-28.6,23.2
			c-12.1,0-17.3-7.6-17.3-24.8v-57.1h-9.9c-0.2,0-0.4-0.5,0-0.9l23-26.5c0.4-0.4,0.7-0.5,0.7,0.2V382.6L1232.5,382.6z"/>
		<path class="st4" d="M1270,431c0-27,25.2-50.4,50-50.4c25.9,0,32.4,16,31.3,24.3c-0.4,3.1-2,5.6-7.6,5.6h-61.6
			c-0.9,4.1-1.4,8.8-1.4,13.9c0,22.1,19.3,39.4,43.6,39.4c22,0,35.3-13.5,45.2-34.9c0.9-2.2,2.2-1.6,1.3,0.4
			c-9.5,22.1-28.4,45-55.6,45C1287.6,474.2,1270,455.9,1270,431z M1334,406.7c1.1-1.3,1.6-3.4,1.6-5.8c0-6.8-6.8-16.4-20.7-16.4
			c-15.5,0-27.7,8.3-32.4,24.5c20.3,0,32.6-0.7,44.3-0.7C1329.4,408.4,1333.5,407.3,1334,406.7z"/>
	</g>
</g>
</svg>
